<?xml version="1.0" standalone="no"?>
<!DOCTYPE svg PUBLIC "-//W3C//DTD SVG 1.1//EN" "http://www.w3.org/Graphics/SVG/1.1/DTD/svg11.dtd" >
<svg>
<metadata>
Created by FontForge 20110222 at Fri Sep 11 19:22:32 2015
 By www-data
Copyright (C) 2001, 2008 Hoefler &#38; Frere-Jones. http://www.typography.com
</metadata>
<defs>
<font id="Gotham-Bold" horiz-adv-x="600" >
  <font-face 
    font-family="Gotham Bold"
    font-weight="400"
    font-stretch="normal"
    units-per-em="1000"
    panose-1="0 0 0 0 0 0 0 0 0 0"
    ascent="800"
    descent="-200"
    x-height="536"
    cap-height="700"
    bbox="-229 -297 1195 1017"
    underline-thickness="50"
    underline-position="-50"
    stemh="140"
    stemv="152"
    unicode-range="U+0020-FB04"
  />
<missing-glyph horiz-adv-x="500" 
d="M0 -200v1000h500v-1000h-500zM71 750l179 -390l179 390h-358zM50 -76l172 376l-172 376v-752zM450 676l-172 -376l172 -376v752zM250 240l-179 -390h358z" />
    <glyph glyph-name="f_f" unicode="ff" horiz-adv-x="764" 
d="M476 0v406h-63v125h63v34c0 59 15 102 43 130s69 42 123 42c48 0 80 -6 108 -15v-126c-22 8 -43 13 -69 13c-35 0 -55 -18 -55 -58v-21h123v-124h-121v-406h-152zM94 0v406h-63v125h63v34c0 59 15 102 43 130s69 42 123 42c48 0 80 -6 108 -15v-126c-22 8 -43 13 -69 13
c-35 0 -55 -18 -55 -58v-21h123v-124h-121v-406h-152z" />
    <glyph glyph-name="fi" unicode="fi" horiz-adv-x="684" 
d="M94 0v406h-63v125h63v34c0 59 15 102 43 130s69 42 123 42c48 0 80 -6 108 -15v-126c-22 8 -43 13 -69 13c-35 0 -55 -18 -55 -58v-21h123v-124h-121v-406h-152zM457 0v536h152v-536h-152zM453 595v135h160v-135h-160z" />
    <glyph glyph-name="fl" unicode="fl" horiz-adv-x="684" 
d="M94 0v406h-63v125h63v34c0 59 15 102 43 130s69 42 123 42c48 0 80 -6 108 -15v-126c-22 8 -43 13 -69 13c-35 0 -55 -18 -55 -58v-21h123v-124h-121v-406h-152zM457 0v730h152v-730h-152z" />
    <glyph glyph-name="f_f_i" unicode="ffi" horiz-adv-x="1066" 
d="M476 0v406h-63v125h63v34c0 59 15 102 43 130s69 42 123 42c48 0 80 -6 108 -15v-126c-22 8 -43 13 -69 13c-35 0 -55 -18 -55 -58v-21h123v-124h-121v-406h-152zM94 0v406h-63v125h63v34c0 59 15 102 43 130s69 42 123 42c48 0 80 -6 108 -15v-126c-22 8 -43 13 -69 13
c-35 0 -55 -18 -55 -58v-21h123v-124h-121v-406h-152zM839 0v536h152v-536h-152zM835 595v135h160v-135h-160z" />
    <glyph glyph-name="f_f_l" unicode="ffl" horiz-adv-x="1066" 
d="M476 0v406h-63v125h63v34c0 59 15 102 43 130s69 42 123 42c48 0 80 -6 108 -15v-126c-22 8 -43 13 -69 13c-35 0 -55 -18 -55 -58v-21h123v-124h-121v-406h-152zM94 0v406h-63v125h63v34c0 59 15 102 43 130s69 42 123 42c48 0 80 -6 108 -15v-126c-22 8 -43 13 -69 13
c-35 0 -55 -18 -55 -58v-21h123v-124h-121v-406h-152zM839 0v730h152v-730h-152z" />
    <glyph glyph-name=".notdef" horiz-adv-x="500" 
d="M0 -200v1000h500v-1000h-500zM71 750l179 -390l179 390h-358zM50 -76l172 376l-172 376v-752zM450 676l-172 -376l172 -376v752zM250 240l-179 -390h358z" />
    <glyph glyph-name="A" unicode="A" horiz-adv-x="790" 
d="M24 0l300 705h142l300 -705h-161l-64 157h-296l-64 -157h-157zM300 293h186l-93 227z" />
    <glyph glyph-name="B" unicode="B" horiz-adv-x="722" 
d="M84 0v700h325c80 0 143 -22 183 -62c32 -32 48 -71 48 -119v-2c0 -79 -42 -123 -92 -151c81 -31 131 -78 131 -172v-2c0 -128 -104 -192 -262 -192h-333zM487 491v2c0 46 -36 72 -101 72h-152v-148h142c68 0 111 22 111 74zM526 213c0 47 -35 76 -114 76h-178v-154h183
c68 0 109 24 109 76v2z" />
    <glyph glyph-name="C" unicode="C" horiz-adv-x="738" 
d="M412 -12c-206 0 -359 159 -359 360v2c0 199 150 362 365 362c132 0 211 -44 276 -108l-98 -113c-54 49 -109 79 -179 79c-118 0 -203 -98 -203 -218v-2c0 -120 83 -220 203 -220c80 0 129 32 184 82l98 -99c-72 -77 -152 -125 -287 -125z" />
    <glyph glyph-name="D" unicode="D" horiz-adv-x="782" 
d="M84 0v700h273c220 0 372 -151 372 -348v-2c0 -197 -152 -350 -372 -350h-273zM357 561h-119v-422h119c126 0 211 85 211 209v2c0 124 -85 211 -211 211z" />
    <glyph glyph-name="E" unicode="E" horiz-adv-x="670" 
d="M84 0v700h528v-137h-375v-142h330v-137h-330v-147h380v-137h-533z" />
    <glyph glyph-name="F" unicode="F" horiz-adv-x="656" 
d="M84 0v700h533v-140h-379v-149h334v-140h-334v-271h-154z" />
    <glyph glyph-name="G" unicode="G" horiz-adv-x="784" 
d="M421 -12c-218 0 -368 153 -368 360v2c0 199 155 362 367 362c126 0 202 -34 275 -96l-97 -117c-54 45 -102 71 -183 71c-112 0 -201 -99 -201 -218v-2c0 -128 88 -222 212 -222c56 0 106 14 145 42v100h-155v133h304v-304c-72 -61 -171 -111 -299 -111z" />
    <glyph glyph-name="H" unicode="H" horiz-adv-x="760" 
d="M84 0v700h154v-277h284v277h154v-700h-154v281h-284v-281h-154z" />
    <glyph glyph-name="I" unicode="I" horiz-adv-x="336" 
d="M91 0v700h154v-700h-154z" />
    <glyph glyph-name="J" unicode="J" horiz-adv-x="564" 
d="M243 -10c-109 0 -181 48 -229 105l97 108c40 -44 79 -70 128 -70c58 0 94 35 94 116v451h158v-458c0 -83 -24 -145 -66 -187c-43 -43 -106 -65 -182 -65z" />
    <glyph glyph-name="K" unicode="K" horiz-adv-x="730" 
d="M84 0v700h154v-306l284 306h186l-285 -297l298 -403h-185l-217 298l-81 -84v-214h-154z" />
    <glyph glyph-name="L" unicode="L" horiz-adv-x="619" 
d="M84 0v700h154v-560h349v-140h-503z" />
    <glyph glyph-name="M" unicode="M" horiz-adv-x="868" 
d="M84 0v700h166l184 -296l184 296h166v-700h-153v457l-197 -299h-4l-195 296v-454h-151z" />
    <glyph glyph-name="N" unicode="N" horiz-adv-x="790" 
d="M84 0v700h142l328 -431v431h152v-700h-131l-339 445v-445h-152z" />
    <glyph glyph-name="O" unicode="O" horiz-adv-x="850" 
d="M424 -12c-216 0 -371 161 -371 360v2c0 199 157 362 373 362s371 -161 371 -360v-2c0 -199 -157 -362 -373 -362zM426 130c124 0 210 98 210 218v2c0 120 -88 220 -212 220s-210 -98 -210 -218v-2c0 -120 88 -220 212 -220z" />
    <glyph glyph-name="P" unicode="P" horiz-adv-x="668" 
d="M84 0v700h286c167 0 268 -99 268 -242v-2c0 -162 -126 -246 -283 -246h-117v-210h-154zM238 347h122c77 0 122 46 122 106v2c0 69 -48 106 -125 106h-119v-214z" />
    <glyph glyph-name="Q" unicode="Q" horiz-adv-x="850" 
d="M807 88l-98 -109l-77 69c-59 -38 -130 -60 -208 -60c-216 0 -371 161 -371 360v2c0 199 157 362 373 362s371 -161 371 -360v-2c0 -74 -23 -143 -62 -201zM426 130c34 0 65 6 92 19l-114 97l98 110l115 -104c12 28 19 61 19 96v2c0 120 -88 220 -212 220
s-210 -98 -210 -218v-2c0 -120 88 -220 212 -220z" />
    <glyph glyph-name="Q.alt" horiz-adv-x="850" 
d="M635 -101l-105 103c-33 -9 -69 -14 -106 -14c-216 0 -371 161 -371 360v2c0 199 157 362 373 362s371 -161 371 -360v-2c0 -103 -42 -197 -113 -263l182 -183v-5h-231zM426 130c124 0 210 98 210 218v2c0 120 -88 220 -212 220s-210 -98 -210 -218v-2
c0 -120 88 -220 212 -220z" />
    <glyph glyph-name="R" unicode="R" horiz-adv-x="723" 
d="M84 0v700h320c89 0 158 -25 204 -71c39 -39 60 -94 60 -160v-2c0 -113 -61 -184 -150 -217l171 -250h-180l-150 224h-121v-224h-154zM238 360h156c75 0 118 40 118 99v2c0 66 -46 100 -121 100h-153v-201z" />
    <glyph glyph-name="S" unicode="S" horiz-adv-x="640" 
d="M333 -10c-106 0 -213 37 -297 112l91 109c63 -52 129 -85 209 -85c63 0 101 25 101 66v2c0 39 -24 59 -141 89c-141 36 -232 75 -232 214v2c0 127 102 211 245 211c102 0 189 -32 260 -89l-80 -116c-62 43 -123 69 -182 69s-90 -27 -90 -61v-2c0 -46 30 -61 151 -92
c142 -37 222 -88 222 -210v-2c0 -139 -106 -217 -257 -217z" />
    <glyph glyph-name="T" unicode="T" horiz-adv-x="648" 
d="M247 0v558h-213v142h580v-142h-213v-558h-154z" />
    <glyph glyph-name="U" unicode="U" horiz-adv-x="756" 
d="M376 -11c-188 0 -303 105 -303 311v400h154v-396c0 -114 57 -173 151 -173s151 57 151 168v401h154v-395c0 -212 -119 -316 -307 -316z" />
    <glyph glyph-name="V" unicode="V" horiz-adv-x="750" 
d="M307 -5l-283 705h170l183 -493l183 493h166l-283 -705h-136z" />
    <glyph glyph-name="W" unicode="W" horiz-adv-x="1122" 
d="M269 -5l-239 705h165l145 -474l157 476h132l157 -476l145 474h161l-239 -705h-134l-158 458l-158 -458h-134z" />
    <glyph glyph-name="X" unicode="X" horiz-adv-x="732" 
d="M516 700h175l-234 -342l244 -358h-180l-157 240l-158 -240h-175l244 356l-234 344h180l146 -227z" />
    <glyph glyph-name="Y" unicode="Y" horiz-adv-x="716" 
d="M281 0v276l-269 424h180l167 -281l170 281h175l-269 -421v-279h-154z" />
    <glyph glyph-name="Z" unicode="Z" horiz-adv-x="708" 
d="M63 0v117l385 448h-373v135h571v-117l-385 -448h385v-135h-583z" />
    <glyph glyph-name="a" unicode="a" horiz-adv-x="592" 
d="M220 -10c-101 0 -184 58 -184 164v2c0 117 89 171 216 171c54 0 93 -9 131 -22v9c0 63 -39 98 -115 98c-58 0 -99 -11 -148 -29l-38 116c59 26 117 43 208 43c83 0 143 -22 181 -60c40 -40 58 -99 58 -171v-311h-147v58c-37 -41 -88 -68 -162 -68zM266 95
c71 0 119 39 119 94v27c-26 12 -60 20 -97 20c-65 0 -105 -26 -105 -74v-2c0 -41 34 -65 83 -65z" />
    <glyph glyph-name="a.alt" horiz-adv-x="675" 
d="M288 -10c-125 0 -244 98 -244 277v2c0 179 117 277 244 277c81 0 131 -37 167 -80v70h152v-536h-152v77c-37 -50 -88 -87 -167 -87zM327 119c71 0 130 59 130 148v2c0 89 -59 148 -130 148s-131 -58 -131 -148v-2c0 -89 60 -148 131 -148z" />
    <glyph glyph-name="b" unicode="b" horiz-adv-x="675" 
d="M387 -10c-81 0 -131 37 -167 80v-70h-152v730h152v-271c37 50 88 87 167 87c125 0 244 -98 244 -277v-2c0 -179 -117 -277 -244 -277zM348 119c71 0 131 58 131 148v2c0 89 -60 148 -131 148s-130 -59 -130 -148v-2c0 -89 59 -148 130 -148z" />
    <glyph glyph-name="c" unicode="c" horiz-adv-x="571" 
d="M321 -12c-161 0 -279 124 -279 277v2c0 153 117 279 281 279c101 0 164 -34 214 -90l-93 -100c-34 36 -68 59 -122 59c-76 0 -130 -67 -130 -146v-2c0 -82 53 -148 136 -148c51 0 86 22 123 57l89 -90c-52 -57 -112 -98 -219 -98z" />
    <glyph glyph-name="d" unicode="d" horiz-adv-x="675" 
d="M288 -10c-125 0 -244 98 -244 277v2c0 179 117 277 244 277c81 0 131 -37 167 -80v264h152v-730h-152v77c-37 -50 -88 -87 -167 -87zM327 119c71 0 130 59 130 148v2c0 89 -59 148 -130 148s-131 -58 -131 -148v-2c0 -89 60 -148 131 -148z" />
    <glyph glyph-name="e" unicode="e" horiz-adv-x="613" 
d="M322 -12c-161 0 -280 113 -280 277v2c0 153 109 279 265 279c179 0 261 -139 261 -291c0 -12 -1 -26 -2 -40h-373c15 -69 63 -105 131 -105c51 0 88 16 130 55l87 -77c-50 -62 -122 -100 -219 -100zM191 310h229c-9 68 -49 114 -113 114c-63 0 -104 -45 -116 -114z" />
    <glyph glyph-name="f" unicode="f" horiz-adv-x="382" 
d="M94 0v406h-63v125h63v34c0 59 15 102 43 130s69 42 123 42c48 0 80 -6 108 -15v-126c-22 8 -43 13 -69 13c-35 0 -55 -18 -55 -58v-21h123v-124h-121v-406h-152z" />
    <glyph glyph-name="g" unicode="g" horiz-adv-x="675" 
d="M308 -162c-87 0 -169 20 -237 56l52 114c55 -31 110 -49 181 -49c104 0 153 50 153 146v26c-45 -54 -94 -87 -175 -87c-125 0 -238 91 -238 250v2c0 160 115 250 238 250c83 0 132 -35 173 -80v70h152v-415c0 -96 -23 -166 -68 -211c-50 -50 -127 -72 -231 -72zM326 170
c74 0 131 51 131 124v2c0 73 -57 124 -131 124s-130 -51 -130 -124v-2c0 -74 56 -124 130 -124z" />
    <glyph glyph-name="h" unicode="h" horiz-adv-x="623" 
d="M68 0v730h152v-270c35 45 80 86 157 86c115 0 182 -76 182 -199v-347h-152v299c0 72 -34 109 -92 109s-95 -37 -95 -109v-299h-152z" />
    <glyph glyph-name="i" unicode="i" horiz-adv-x="302" 
d="M71 595v135h160v-135h-160zM75 0v536h152v-536h-152z" />
    <glyph glyph-name="j" unicode="j" horiz-adv-x="302" 
d="M71 595v135h160v-135h-160zM55 -163c-28 0 -45 2 -66 6v119c12 -2 21 -3 32 -3c32 0 54 17 54 62v515h152v-527c0 -118 -60 -172 -172 -172z" />
    <glyph glyph-name="k" unicode="k" horiz-adv-x="592" 
d="M68 0v730h152v-389l178 195h182l-204 -211l211 -325h-176l-137 220l-54 -57v-163h-152z" />
    <glyph glyph-name="l" unicode="l" horiz-adv-x="302" 
d="M75 0v730h152v-730h-152z" />
    <glyph glyph-name="m" unicode="m" horiz-adv-x="950" 
d="M68 0v536h152v-76c35 45 81 86 158 86c70 0 123 -31 151 -85c47 55 103 85 176 85c113 0 181 -68 181 -197v-349h-152v299c0 72 -32 109 -89 109s-92 -37 -92 -109v-299h-152v299c0 72 -32 109 -89 109s-92 -37 -92 -109v-299h-152z" />
    <glyph glyph-name="n" unicode="n" horiz-adv-x="623" 
d="M68 0v536h152v-76c35 45 80 86 157 86c115 0 182 -76 182 -199v-347h-152v299c0 72 -34 109 -92 109s-95 -37 -95 -109v-299h-152z" />
    <glyph glyph-name="o" unicode="o" horiz-adv-x="664" 
d="M331 -12c-166 0 -289 123 -289 277v2c0 154 124 279 291 279c166 0 289 -123 289 -277v-2c0 -154 -124 -279 -291 -279zM333 119c87 0 139 67 139 146v2c0 79 -57 148 -141 148c-87 0 -139 -67 -139 -146v-2c0 -79 57 -148 141 -148z" />
    <glyph glyph-name="p" unicode="p" horiz-adv-x="675" 
d="M68 -160v696h152v-77c37 50 88 87 167 87c125 0 244 -98 244 -277v-2c0 -179 -117 -277 -244 -277c-81 0 -131 37 -167 80v-230h-152zM348 119c71 0 131 58 131 148v2c0 89 -60 148 -131 148s-130 -59 -130 -148v-2c0 -89 59 -148 130 -148z" />
    <glyph glyph-name="q" unicode="q" horiz-adv-x="675" 
d="M455 -160v237c-37 -50 -88 -87 -167 -87c-125 0 -244 98 -244 277v2c0 179 117 277 244 277c81 0 131 -37 167 -80v70h152v-696h-152zM327 119c71 0 130 59 130 148v2c0 89 -59 148 -130 148s-131 -58 -131 -148v-2c0 -89 60 -148 131 -148z" />
    <glyph glyph-name="r" unicode="r" horiz-adv-x="418" 
d="M68 0v536h152v-108c31 74 81 122 171 118v-159h-8c-101 0 -163 -61 -163 -189v-198h-152z" />
    <glyph glyph-name="s" unicode="s" horiz-adv-x="502" 
d="M256 -10c-75 0 -159 25 -230 81l65 100c58 -42 119 -64 169 -64c44 0 64 16 64 40v2c0 33 -52 44 -111 62c-75 22 -160 57 -160 161v2c0 109 88 170 196 170c68 0 142 -23 200 -62l-58 -105c-53 31 -106 50 -145 50c-37 0 -56 -16 -56 -37v-2c0 -30 51 -44 109 -64
c75 -25 162 -61 162 -159v-2c0 -119 -89 -173 -205 -173z" />
    <glyph glyph-name="t" unicode="t" horiz-adv-x="415" 
d="M249 -9c-93 0 -156 37 -156 161v254h-64v130h64v137h152v-137h126v-130h-126v-229c0 -35 15 -52 49 -52c28 0 53 7 75 19v-122c-32 -19 -69 -31 -120 -31z" />
    <glyph glyph-name="u" unicode="u" horiz-adv-x="623" 
d="M246 -10c-115 0 -182 76 -182 199v347h152v-299c0 -72 34 -109 92 -109s95 37 95 109v299h152v-536h-152v76c-35 -45 -80 -86 -157 -86z" />
    <glyph glyph-name="v" unicode="v" 
d="M231 -4l-211 540h161l120 -359l121 359h158l-211 -540h-138z" />
    <glyph glyph-name="w" unicode="w" horiz-adv-x="861" 
d="M189 -4l-165 540h154l86 -325l101 327h131l102 -328l88 326h151l-167 -540h-137l-103 329l-105 -329h-136z" />
    <glyph glyph-name="x" unicode="x" horiz-adv-x="584" 
d="M193 536l100 -157l101 157h159l-181 -262l189 -274h-163l-108 167l-108 -167h-159l188 272l-181 264h163z" />
    <glyph glyph-name="y" unicode="y" 
d="M303 171l117 365h158l-206 -549c-41 -109 -85 -150 -176 -150c-55 0 -96 14 -135 37l51 110c20 -12 45 -21 65 -21c26 0 40 8 53 35l-210 538h161z" />
    <glyph glyph-name="z" unicode="z" horiz-adv-x="563" 
d="M50 0v107l277 306h-268v123h457v-107l-278 -306h278v-123h-466z" />
    <glyph glyph-name="Aacute" unicode="&#xc1;" horiz-adv-x="790" 
d="M24 0l300 705h142l300 -705h-161l-64 157h-296l-64 -157h-157zM300 293h186l-93 227zM333 765l121 157l131 -57l-136 -100h-116z" />
    <glyph glyph-name="aacute" unicode="&#xe1;" horiz-adv-x="592" 
d="M220 -10c-101 0 -184 58 -184 164v2c0 117 89 171 216 171c54 0 93 -9 131 -22v9c0 63 -39 98 -115 98c-58 0 -99 -11 -148 -29l-38 116c59 26 117 43 208 43c83 0 143 -22 181 -60c40 -40 58 -99 58 -171v-311h-147v58c-37 -41 -88 -68 -162 -68zM266 95
c71 0 119 39 119 94v27c-26 12 -60 20 -97 20c-65 0 -105 -26 -105 -74v-2c0 -41 34 -65 83 -65zM238 595l111 177l131 -57l-130 -120h-112z" />
    <glyph glyph-name="aacute.alt" horiz-adv-x="675" 
d="M288 -10c-125 0 -244 98 -244 277v2c0 179 117 277 244 277c81 0 131 -37 167 -80v70h152v-536h-152v77c-37 -50 -88 -87 -167 -87zM327 119c71 0 130 59 130 148v2c0 89 -59 148 -130 148s-131 -58 -131 -148v-2c0 -89 60 -148 131 -148zM285 595l111 177l131 -57
l-130 -120h-112z" />
    <glyph glyph-name="Abreve" unicode="&#x102;" horiz-adv-x="790" 
d="M24 0l300 705h142l300 -705h-161l-64 157h-296l-64 -157h-157zM300 293h186l-93 227zM395 763c-106 0 -181 53 -190 149h104c12 -31 36 -49 86 -49s74 18 86 49h104c-9 -96 -84 -149 -190 -149z" />
    <glyph glyph-name="abreve" unicode="&#x103;" horiz-adv-x="592" 
d="M220 -10c-101 0 -184 58 -184 164v2c0 117 89 171 216 171c54 0 93 -9 131 -22v9c0 63 -39 98 -115 98c-58 0 -99 -11 -148 -29l-38 116c59 26 117 43 208 43c83 0 143 -22 181 -60c40 -40 58 -99 58 -171v-311h-147v58c-37 -41 -88 -68 -162 -68zM266 95
c71 0 119 39 119 94v27c-26 12 -60 20 -97 20c-65 0 -105 -26 -105 -74v-2c0 -41 34 -65 83 -65zM298 593c-106 0 -179 58 -188 159h102c12 -36 36 -60 86 -60s74 24 86 60h102c-9 -101 -82 -159 -188 -159z" />
    <glyph glyph-name="abreve.alt" horiz-adv-x="675" 
d="M288 -10c-125 0 -244 98 -244 277v2c0 179 117 277 244 277c81 0 131 -37 167 -80v70h152v-536h-152v77c-37 -50 -88 -87 -167 -87zM327 119c71 0 130 59 130 148v2c0 89 -59 148 -130 148s-131 -58 -131 -148v-2c0 -89 60 -148 131 -148zM345 593
c-106 0 -179 58 -188 159h102c12 -36 36 -60 86 -60s74 24 86 60h102c-9 -101 -82 -159 -188 -159z" />
    <glyph glyph-name="Acircumflex" unicode="&#xc2;" horiz-adv-x="790" 
d="M24 0l300 705h142l300 -705h-161l-64 157h-296l-64 -157h-157zM300 293h186l-93 227zM195 760l128 147h144l128 -147h-122l-79 56l-79 -56h-120z" />
    <glyph glyph-name="acircumflex" unicode="&#xe2;" horiz-adv-x="592" 
d="M220 -10c-101 0 -184 58 -184 164v2c0 117 89 171 216 171c54 0 93 -9 131 -22v9c0 63 -39 98 -115 98c-58 0 -99 -11 -148 -29l-38 116c59 26 117 43 208 43c83 0 143 -22 181 -60c40 -40 58 -99 58 -171v-311h-147v58c-37 -41 -88 -68 -162 -68zM266 95
c71 0 119 39 119 94v27c-26 12 -60 20 -97 20c-65 0 -105 -26 -105 -74v-2c0 -41 34 -65 83 -65zM103 595l123 157h144l123 -157h-117l-79 66l-79 -66h-115z" />
    <glyph glyph-name="acircumflex.alt" horiz-adv-x="675" 
d="M288 -10c-125 0 -244 98 -244 277v2c0 179 117 277 244 277c81 0 131 -37 167 -80v70h152v-536h-152v77c-37 -50 -88 -87 -167 -87zM327 119c71 0 130 59 130 148v2c0 89 -59 148 -130 148s-131 -58 -131 -148v-2c0 -89 60 -148 131 -148zM150 595l123 157h144l123 -157
h-117l-79 66l-79 -66h-115z" />
    <glyph glyph-name="Adieresis" unicode="&#xc4;" horiz-adv-x="790" 
d="M24 0l300 705h142l300 -705h-161l-64 157h-296l-64 -157h-157zM300 293h186l-93 227zM431 765v127h146v-127h-146zM213 765v127h146v-127h-146z" />
    <glyph glyph-name="adieresis" unicode="&#xe4;" horiz-adv-x="592" 
d="M220 -10c-101 0 -184 58 -184 164v2c0 117 89 171 216 171c54 0 93 -9 131 -22v9c0 63 -39 98 -115 98c-58 0 -99 -11 -148 -29l-38 116c59 26 117 43 208 43c83 0 143 -22 181 -60c40 -40 58 -99 58 -171v-311h-147v58c-37 -41 -88 -68 -162 -68zM266 95
c71 0 119 39 119 94v27c-26 12 -60 20 -97 20c-65 0 -105 -26 -105 -74v-2c0 -41 34 -65 83 -65zM329 595v135h146v-135h-146zM121 595v135h146v-135h-146z" />
    <glyph glyph-name="adieresis.alt" horiz-adv-x="675" 
d="M288 -10c-125 0 -244 98 -244 277v2c0 179 117 277 244 277c81 0 131 -37 167 -80v70h152v-536h-152v77c-37 -50 -88 -87 -167 -87zM327 119c71 0 130 59 130 148v2c0 89 -59 148 -130 148s-131 -58 -131 -148v-2c0 -89 60 -148 131 -148zM376 595v135h146v-135h-146z
M168 595v135h146v-135h-146z" />
    <glyph glyph-name="AE" unicode="&#xc6;" horiz-adv-x="1045" 
d="M9 0l377 700h601v-137h-350v-142h305v-137h-305v-147h355v-137h-508v157h-235l-83 -157h-157zM321 293h163v274h-18z" />
    <glyph glyph-name="ae" unicode="&#xe6;" horiz-adv-x="951" 
d="M238 -10c-116 0 -202 60 -202 164v2c0 117 89 171 216 171c54 0 93 -9 131 -22v9c0 63 -39 98 -115 98c-58 0 -99 -11 -148 -29l-38 116c59 26 117 43 208 43c88 0 146 -24 182 -68c44 45 104 72 177 72c174 0 257 -139 257 -291c0 -12 -1 -26 -2 -40h-373
c15 -69 63 -105 131 -105c51 0 88 16 130 55l87 -77c-50 -62 -122 -100 -219 -100c-82 0 -154 30 -204 81c-61 -45 -133 -79 -218 -79zM529 310h229c-9 68 -49 114 -113 114c-63 0 -104 -45 -116 -114zM266 97c45 0 92 16 137 51c-9 21 -16 44 -19 69c-26 11 -60 19 -96 19
c-65 0 -105 -26 -105 -74v-2c0 -39 37 -63 83 -63z" />
    <glyph glyph-name="AEacute" unicode="&#x1fc;" horiz-adv-x="1045" 
d="M9 0l377 700h601v-137h-350v-142h305v-137h-305v-147h355v-137h-508v157h-235l-83 -157h-157zM321 293h163v274h-18zM554 755l121 157l131 -57l-136 -100h-116z" />
    <glyph glyph-name="aeacute" unicode="&#x1fd;" horiz-adv-x="951" 
d="M238 -10c-116 0 -202 60 -202 164v2c0 117 89 171 216 171c54 0 93 -9 131 -22v9c0 63 -39 98 -115 98c-58 0 -99 -11 -148 -29l-38 116c59 26 117 43 208 43c88 0 146 -24 182 -68c44 45 104 72 177 72c174 0 257 -139 257 -291c0 -12 -1 -26 -2 -40h-373
c15 -69 63 -105 131 -105c51 0 88 16 130 55l87 -77c-50 -62 -122 -100 -219 -100c-82 0 -154 30 -204 81c-61 -45 -133 -79 -218 -79zM529 310h229c-9 68 -49 114 -113 114c-63 0 -104 -45 -116 -114zM266 97c45 0 92 16 137 51c-9 21 -16 44 -19 69c-26 11 -60 19 -96 19
c-65 0 -105 -26 -105 -74v-2c0 -39 37 -63 83 -63zM411 595l111 177l131 -57l-130 -120h-112z" />
    <glyph glyph-name="Agrave" unicode="&#xc0;" horiz-adv-x="790" 
d="M24 0l300 705h142l300 -705h-161l-64 157h-296l-64 -157h-157zM300 293h186l-93 227zM457 765h-116l-136 100l131 57z" />
    <glyph glyph-name="agrave" unicode="&#xe0;" horiz-adv-x="592" 
d="M220 -10c-101 0 -184 58 -184 164v2c0 117 89 171 216 171c54 0 93 -9 131 -22v9c0 63 -39 98 -115 98c-58 0 -99 -11 -148 -29l-38 116c59 26 117 43 208 43c83 0 143 -22 181 -60c40 -40 58 -99 58 -171v-311h-147v58c-37 -41 -88 -68 -162 -68zM266 95
c71 0 119 39 119 94v27c-26 12 -60 20 -97 20c-65 0 -105 -26 -105 -74v-2c0 -41 34 -65 83 -65zM246 595l-130 120l131 57l111 -177h-112z" />
    <glyph glyph-name="agrave.alt" horiz-adv-x="675" 
d="M288 -10c-125 0 -244 98 -244 277v2c0 179 117 277 244 277c81 0 131 -37 167 -80v70h152v-536h-152v77c-37 -50 -88 -87 -167 -87zM327 119c71 0 130 59 130 148v2c0 89 -59 148 -130 148s-131 -58 -131 -148v-2c0 -89 60 -148 131 -148zM293 595l-130 120l131 57
l111 -177h-112z" />
    <glyph glyph-name="Amacron" unicode="&#x100;" horiz-adv-x="790" 
d="M24 0l300 705h142l300 -705h-161l-64 157h-296l-64 -157h-157zM300 293h186l-93 227zM205 770v107h380v-107h-380z" />
    <glyph glyph-name="amacron" unicode="&#x101;" horiz-adv-x="592" 
d="M220 -10c-101 0 -184 58 -184 164v2c0 117 89 171 216 171c54 0 93 -9 131 -22v9c0 63 -39 98 -115 98c-58 0 -99 -11 -148 -29l-38 116c59 26 117 43 208 43c83 0 143 -22 181 -60c40 -40 58 -99 58 -171v-311h-147v58c-37 -41 -88 -68 -162 -68zM266 95
c71 0 119 39 119 94v27c-26 12 -60 20 -97 20c-65 0 -105 -26 -105 -74v-2c0 -41 34 -65 83 -65zM118 600v105h360v-105h-360z" />
    <glyph glyph-name="amacron.alt" horiz-adv-x="675" 
d="M288 -10c-125 0 -244 98 -244 277v2c0 179 117 277 244 277c81 0 131 -37 167 -80v70h152v-536h-152v77c-37 -50 -88 -87 -167 -87zM327 119c71 0 130 59 130 148v2c0 89 -59 148 -130 148s-131 -58 -131 -148v-2c0 -89 60 -148 131 -148zM165 600v105h360v-105h-360z
" />
    <glyph glyph-name="Aogonek" unicode="&#x104;" horiz-adv-x="790" 
d="M773 -97v-67c-16 -2 -32 -3 -45 -3c-87 0 -134 38 -134 87c0 29 13 54 33 80h-22l-64 157h-296l-64 -157h-157l300 705h142l300 -705h-38c-18 -21 -25 -40 -25 -56c0 -29 26 -43 70 -41zM300 293h186l-93 227z" />
    <glyph glyph-name="aogonek" unicode="&#x105;" horiz-adv-x="592" 
d="M532 -97v-67c-16 -2 -32 -3 -45 -3c-87 0 -134 38 -134 87c0 29 13 54 33 80h-4v58c-37 -41 -88 -68 -162 -68c-101 0 -184 58 -184 164v2c0 117 89 171 216 171c54 0 93 -9 131 -22v9c0 63 -39 98 -115 98c-58 0 -99 -11 -148 -29l-38 116c59 26 117 43 208 43
c83 0 143 -22 181 -60c40 -40 58 -99 58 -171v-311h-42c-18 -21 -25 -40 -25 -56c0 -29 26 -43 70 -41zM266 95c71 0 119 39 119 94v27c-26 12 -60 20 -97 20c-65 0 -105 -26 -105 -74v-2c0 -41 34 -65 83 -65z" />
    <glyph glyph-name="aogonek.alt" horiz-adv-x="675" 
d="M617 -97v-67c-16 -2 -32 -3 -45 -3c-87 0 -134 38 -134 87c0 29 13 54 33 80h-16v77c-37 -50 -88 -87 -167 -87c-125 0 -244 98 -244 277v2c0 179 117 277 244 277c81 0 131 -37 167 -80v70h152v-536h-35c-18 -21 -25 -40 -25 -56c0 -29 26 -43 70 -41zM327 119
c71 0 130 59 130 148v2c0 89 -59 148 -130 148s-131 -58 -131 -148v-2c0 -89 60 -148 131 -148z" />
    <glyph glyph-name="Aring" unicode="&#xc5;" horiz-adv-x="790" 
d="M24 0l282 664c-22 19 -35 46 -35 78c0 65 57 110 124 110s124 -45 124 -110c0 -32 -14 -59 -35 -78l282 -664h-161l-64 157h-296l-64 -157h-157zM300 293h186l-93 227zM395 686c38 0 63 25 63 56s-25 56 -63 56s-63 -25 -63 -56s25 -56 63 -56z" />
    <glyph glyph-name="aring" unicode="&#xe5;" horiz-adv-x="592" 
d="M220 -10c-101 0 -184 58 -184 164v2c0 117 89 171 216 171c54 0 93 -9 131 -22v9c0 63 -39 98 -115 98c-58 0 -99 -11 -148 -29l-38 116c59 26 117 43 208 43c83 0 143 -22 181 -60c40 -40 58 -99 58 -171v-311h-147v58c-37 -41 -88 -68 -162 -68zM266 95
c71 0 119 39 119 94v27c-26 12 -60 20 -97 20c-65 0 -105 -26 -105 -74v-2c0 -41 34 -65 83 -65zM298 593c-67 0 -121 52 -121 117s54 117 121 117s121 -52 121 -117s-54 -117 -121 -117zM298 644c36 0 66 30 66 66s-30 66 -66 66s-66 -30 -66 -66s30 -66 66 -66z" />
    <glyph glyph-name="aring.alt" horiz-adv-x="675" 
d="M288 -10c-125 0 -244 98 -244 277v2c0 179 117 277 244 277c81 0 131 -37 167 -80v70h152v-536h-152v77c-37 -50 -88 -87 -167 -87zM327 119c71 0 130 59 130 148v2c0 89 -59 148 -130 148s-131 -58 -131 -148v-2c0 -89 60 -148 131 -148zM345 593
c-67 0 -121 52 -121 117s54 117 121 117s121 -52 121 -117s-54 -117 -121 -117zM345 644c36 0 66 30 66 66s-30 66 -66 66s-66 -30 -66 -66s30 -66 66 -66z" />
    <glyph glyph-name="aring.alt2" horiz-adv-x="592" 
d="M220 -10c-101 0 -184 58 -184 164v2c0 117 89 171 216 171c54 0 93 -9 131 -22v9c0 63 -39 98 -115 98c-58 0 -99 -11 -148 -29l-38 116c38 17 76 30 123 37c-18 20 -28 45 -28 73c0 65 54 117 121 117s121 -52 121 -117c0 -31 -14 -59 -35 -79c36 -10 65 -27 87 -48
c40 -40 58 -99 58 -171v-311h-147v58c-37 -41 -88 -68 -162 -68zM266 95c71 0 119 39 119 94v27c-26 12 -60 20 -97 20c-65 0 -105 -26 -105 -74v-2c0 -41 34 -65 83 -65zM232 609c0 -36 30 -66 66 -66s66 30 66 66s-30 66 -66 66s-66 -30 -66 -66z" />
    <glyph glyph-name="Aringacute" unicode="&#x1fa;" horiz-adv-x="790" 
d="M24 0l282 664c-22 19 -35 46 -35 78c0 65 57 110 124 110s124 -45 124 -110c0 -32 -14 -59 -35 -78l282 -664h-161l-64 157h-296l-64 -157h-157zM300 293h186l-93 227zM327 880l127 137l131 -57l-142 -80h-116zM395 686c38 0 63 25 63 56s-25 56 -63 56s-63 -25 -63 -56
s25 -56 63 -56z" />
    <glyph glyph-name="aringacute" unicode="&#x1fb;" horiz-adv-x="592" 
d="M237 861l119 147l129 -57l-136 -90h-112zM220 -10c-101 0 -184 58 -184 164v2c0 117 89 171 216 171c54 0 93 -9 131 -22v9c0 63 -39 98 -115 98c-58 0 -99 -11 -148 -29l-38 116c59 26 117 43 208 43c83 0 143 -22 181 -60c40 -40 58 -99 58 -171v-311h-147v58
c-37 -41 -88 -68 -162 -68zM266 95c71 0 119 39 119 94v27c-26 12 -60 20 -97 20c-65 0 -105 -26 -105 -74v-2c0 -41 34 -65 83 -65zM298 593c-67 0 -121 52 -121 117s54 117 121 117s121 -52 121 -117s-54 -117 -121 -117zM298 644c36 0 66 30 66 66s-30 66 -66 66
s-66 -30 -66 -66s30 -66 66 -66z" />
    <glyph glyph-name="aringacute.alt" horiz-adv-x="675" 
d="M284 861l119 147l129 -57l-136 -90h-112zM288 -10c-125 0 -244 98 -244 277v2c0 179 117 277 244 277c81 0 131 -37 167 -80v70h152v-536h-152v77c-37 -50 -88 -87 -167 -87zM327 119c71 0 130 59 130 148v2c0 89 -59 148 -130 148s-131 -58 -131 -148v-2
c0 -89 60 -148 131 -148zM345 593c-67 0 -121 52 -121 117s54 117 121 117s121 -52 121 -117s-54 -117 -121 -117zM345 644c36 0 66 30 66 66s-30 66 -66 66s-66 -30 -66 -66s30 -66 66 -66z" />
    <glyph glyph-name="aringacute.alt2" horiz-adv-x="592" 
d="M237 761l119 147l129 -57l-136 -90h-112zM220 -10c-101 0 -184 58 -184 164v2c0 117 89 171 216 171c54 0 93 -9 131 -22v9c0 63 -39 98 -115 98c-58 0 -99 -11 -148 -29l-38 116c38 17 76 30 123 37c-18 20 -28 45 -28 73c0 65 54 117 121 117s121 -52 121 -117
c0 -31 -14 -59 -35 -79c36 -10 65 -27 87 -48c40 -40 58 -99 58 -171v-311h-147v58c-37 -41 -88 -68 -162 -68zM266 95c71 0 119 39 119 94v27c-26 12 -60 20 -97 20c-65 0 -105 -26 -105 -74v-2c0 -41 34 -65 83 -65zM232 609c0 -36 30 -66 66 -66s66 30 66 66
s-30 66 -66 66s-66 -30 -66 -66z" />
    <glyph glyph-name="Atilde" unicode="&#xc3;" horiz-adv-x="790" 
d="M24 0l300 705h142l300 -705h-161l-64 157h-296l-64 -157h-157zM300 293h186l-93 227zM485 765c-34 0 -68 12 -97 23c-24 9 -43 16 -59 16c-31 0 -44 -17 -58 -49l-81 25c23 84 55 138 125 138c34 0 68 -12 97 -23c24 -9 43 -16 59 -16c31 0 44 17 58 49l81 -25
c-23 -84 -55 -138 -125 -138z" />
    <glyph glyph-name="atilde" unicode="&#xe3;" horiz-adv-x="592" 
d="M220 -10c-101 0 -184 58 -184 164v2c0 117 89 171 216 171c54 0 93 -9 131 -22v9c0 63 -39 98 -115 98c-58 0 -99 -11 -148 -29l-38 116c59 26 117 43 208 43c83 0 143 -22 181 -60c40 -40 58 -99 58 -171v-311h-147v58c-37 -41 -88 -68 -162 -68zM266 95
c71 0 119 39 119 94v27c-26 12 -60 20 -97 20c-65 0 -105 -26 -105 -74v-2c0 -41 34 -65 83 -65zM385 595c-34 0 -66 12 -91 22c-23 9 -43 17 -59 17c-31 0 -43 -17 -57 -49l-81 25c23 84 54 138 124 138c34 0 66 -12 91 -22c23 -9 43 -17 59 -17c31 0 43 17 57 49l81 -25
c-23 -84 -54 -138 -124 -138z" />
    <glyph glyph-name="atilde.alt" horiz-adv-x="675" 
d="M288 -10c-125 0 -244 98 -244 277v2c0 179 117 277 244 277c81 0 131 -37 167 -80v70h152v-536h-152v77c-37 -50 -88 -87 -167 -87zM327 119c71 0 130 59 130 148v2c0 89 -59 148 -130 148s-131 -58 -131 -148v-2c0 -89 60 -148 131 -148zM432 595c-34 0 -66 12 -91 22
c-23 9 -43 17 -59 17c-31 0 -43 -17 -57 -49l-81 25c23 84 54 138 124 138c34 0 66 -12 91 -22c23 -9 43 -17 59 -17c31 0 43 17 57 49l81 -25c-23 -84 -54 -138 -124 -138z" />
    <glyph glyph-name="Cacute" unicode="&#x106;" horiz-adv-x="738" 
d="M412 -12c-206 0 -359 159 -359 360v2c0 199 150 362 365 362c132 0 211 -44 276 -108l-98 -113c-54 49 -109 79 -179 79c-118 0 -203 -98 -203 -218v-2c0 -120 83 -220 203 -220c80 0 129 32 184 82l98 -99c-72 -77 -152 -125 -287 -125zM343 765l121 157l131 -57
l-136 -100h-116z" />
    <glyph glyph-name="cacute" unicode="&#x107;" horiz-adv-x="571" 
d="M321 -12c-161 0 -279 124 -279 277v2c0 153 117 279 281 279c101 0 164 -34 214 -90l-93 -100c-34 36 -68 59 -122 59c-76 0 -130 -67 -130 -146v-2c0 -82 53 -148 136 -148c51 0 86 22 123 57l89 -90c-52 -57 -112 -98 -219 -98zM257 595l111 177l131 -57l-130 -120
h-112z" />
    <glyph glyph-name="Ccaron" unicode="&#x10c;" horiz-adv-x="738" 
d="M412 -12c-206 0 -359 159 -359 360v2c0 199 150 362 365 362c132 0 211 -44 276 -108l-98 -113c-54 49 -109 79 -179 79c-118 0 -203 -98 -203 -218v-2c0 -120 83 -220 203 -220c80 0 129 32 184 82l98 -99c-72 -77 -152 -125 -287 -125zM605 912l-128 -147h-144
l-128 147h122l79 -56l79 56h120z" />
    <glyph glyph-name="ccaron" unicode="&#x10d;" horiz-adv-x="571" 
d="M321 -12c-161 0 -279 124 -279 277v2c0 153 117 279 281 279c101 0 164 -34 214 -90l-93 -100c-34 36 -68 59 -122 59c-76 0 -130 -67 -130 -146v-2c0 -82 53 -148 136 -148c51 0 86 22 123 57l89 -90c-52 -57 -112 -98 -219 -98zM512 752l-123 -157h-144l-123 157h117
l79 -66l79 66h115z" />
    <glyph glyph-name="Ccedilla" unicode="&#xc7;" horiz-adv-x="738" 
d="M373 -173l-127 53l80 118c-161 36 -273 178 -273 350v2c0 199 150 362 365 362c132 0 211 -44 276 -108l-98 -113c-54 49 -109 79 -179 79c-118 0 -203 -98 -203 -218v-2c0 -120 83 -220 203 -220c80 0 129 32 184 82l98 -99c-67 -72 -142 -118 -261 -124z" />
    <glyph glyph-name="ccedilla" unicode="&#xe7;" horiz-adv-x="571" 
d="M281 -173l-127 53l82 120c-116 34 -194 140 -194 265v2c0 153 117 279 281 279c101 0 164 -34 214 -90l-93 -100c-34 36 -68 59 -122 59c-76 0 -130 -67 -130 -146v-2c0 -82 53 -148 136 -148c51 0 86 22 123 57l89 -90c-48 -53 -102 -91 -194 -97z" />
    <glyph glyph-name="Cdotaccent" unicode="&#x10a;" horiz-adv-x="738" 
d="M412 -12c-206 0 -359 159 -359 360v2c0 199 150 362 365 362c132 0 211 -44 276 -108l-98 -113c-54 49 -109 79 -179 79c-118 0 -203 -98 -203 -218v-2c0 -120 83 -220 203 -220c80 0 129 32 184 82l98 -99c-72 -77 -152 -125 -287 -125zM330 765v127h150v-127h-150z" />
    <glyph glyph-name="cdotaccent" unicode="&#x10b;" horiz-adv-x="571" 
d="M321 -12c-161 0 -279 124 -279 277v2c0 153 117 279 281 279c101 0 164 -34 214 -90l-93 -100c-34 36 -68 59 -122 59c-76 0 -130 -67 -130 -146v-2c0 -82 53 -148 136 -148c51 0 86 22 123 57l89 -90c-52 -57 -112 -98 -219 -98zM242 595v135h150v-135h-150z" />
    <glyph glyph-name="Dcaron" unicode="&#x10e;" horiz-adv-x="782" 
d="M84 0v700h273c220 0 372 -151 372 -348v-2c0 -197 -152 -350 -372 -350h-273zM357 561h-119v-422h119c126 0 211 85 211 209v2c0 124 -85 211 -211 211zM578 902l-128 -147h-144l-128 147h122l79 -56l79 56h120z" />
    <glyph glyph-name="dcaron" unicode="&#x10f;" horiz-adv-x="675" 
d="M288 -10c-125 0 -244 98 -244 277v2c0 179 117 277 244 277c81 0 131 -37 167 -80v264h152v-730h-152v77c-37 -50 -88 -87 -167 -87zM327 119c71 0 130 59 130 148v2c0 89 -59 148 -130 148s-131 -58 -131 -148v-2c0 -89 60 -148 131 -148zM657 592l10 208h109v-3
l-59 -205h-60z" />
    <glyph glyph-name="Dcroat" unicode="&#x110;" horiz-adv-x="812" 
d="M114 0v284h-75v136h75v280h273c220 0 372 -151 372 -348v-2c0 -197 -152 -350 -372 -350h-273zM418 284h-150v-145h119c126 0 211 85 211 209v2c0 124 -85 211 -211 211h-119v-141h150v-136z" />
    <glyph glyph-name="dcroat" unicode="&#x111;" horiz-adv-x="675" 
d="M300 593v85h155v52h152v-52h68v-85h-68v-593h-152v77c-37 -50 -88 -87 -167 -87c-125 0 -244 98 -244 277v2c0 179 117 277 244 277c81 0 131 -37 167 -80v127h-155zM327 119c71 0 130 59 130 148v2c0 89 -59 148 -130 148s-131 -58 -131 -148v-2c0 -89 60 -148 131 -148
z" />
    <glyph glyph-name="Eacute" unicode="&#xc9;" horiz-adv-x="670" 
d="M84 0v700h528v-137h-375v-142h330v-137h-330v-147h380v-137h-533zM288 755l121 157l131 -57l-136 -100h-116z" />
    <glyph glyph-name="eacute" unicode="&#xe9;" horiz-adv-x="613" 
d="M322 -12c-161 0 -280 113 -280 277v2c0 153 109 279 265 279c179 0 261 -139 261 -291c0 -12 -1 -26 -2 -40h-373c15 -69 63 -105 131 -105c51 0 88 16 130 55l87 -77c-50 -62 -122 -100 -219 -100zM191 310h229c-9 68 -49 114 -113 114c-63 0 -104 -45 -116 -114z
M245 595l111 177l131 -57l-130 -120h-112z" />
    <glyph glyph-name="Ebreve" unicode="&#x114;" horiz-adv-x="670" 
d="M84 0v700h528v-137h-375v-142h330v-137h-330v-147h380v-137h-533zM350 753c-106 0 -181 53 -190 149h104c12 -31 36 -49 86 -49s74 18 86 49h104c-9 -96 -84 -149 -190 -149z" />
    <glyph glyph-name="ebreve" unicode="&#x115;" horiz-adv-x="613" 
d="M322 -12c-161 0 -280 113 -280 277v2c0 153 109 279 265 279c179 0 261 -139 261 -291c0 -12 -1 -26 -2 -40h-373c15 -69 63 -105 131 -105c51 0 88 16 130 55l87 -77c-50 -62 -122 -100 -219 -100zM191 310h229c-9 68 -49 114 -113 114c-63 0 -104 -45 -116 -114z
M305 593c-106 0 -179 58 -188 159h102c12 -36 36 -60 86 -60s74 24 86 60h102c-9 -101 -82 -159 -188 -159z" />
    <glyph glyph-name="Ecaron" unicode="&#x11a;" horiz-adv-x="670" 
d="M84 0v700h528v-137h-375v-142h330v-137h-330v-147h380v-137h-533zM550 902l-128 -147h-144l-128 147h122l79 -56l79 56h120z" />
    <glyph glyph-name="ecaron" unicode="&#x11b;" horiz-adv-x="613" 
d="M322 -12c-161 0 -280 113 -280 277v2c0 153 109 279 265 279c179 0 261 -139 261 -291c0 -12 -1 -26 -2 -40h-373c15 -69 63 -105 131 -105c51 0 88 16 130 55l87 -77c-50 -62 -122 -100 -219 -100zM191 310h229c-9 68 -49 114 -113 114c-63 0 -104 -45 -116 -114z
M500 752l-123 -157h-144l-123 157h117l79 -66l79 66h115z" />
    <glyph glyph-name="Ecircumflex" unicode="&#xca;" horiz-adv-x="670" 
d="M84 0v700h528v-137h-375v-142h330v-137h-330v-147h380v-137h-533zM150 755l128 147h144l128 -147h-122l-79 56l-79 -56h-120z" />
    <glyph glyph-name="ecircumflex" unicode="&#xea;" horiz-adv-x="613" 
d="M322 -12c-161 0 -280 113 -280 277v2c0 153 109 279 265 279c179 0 261 -139 261 -291c0 -12 -1 -26 -2 -40h-373c15 -69 63 -105 131 -105c51 0 88 16 130 55l87 -77c-50 -62 -122 -100 -219 -100zM191 310h229c-9 68 -49 114 -113 114c-63 0 -104 -45 -116 -114z
M110 595l123 157h144l123 -157h-117l-79 66l-79 -66h-115z" />
    <glyph glyph-name="Edieresis" unicode="&#xcb;" horiz-adv-x="670" 
d="M84 0v700h528v-137h-375v-142h330v-137h-330v-147h380v-137h-533zM386 755v127h146v-127h-146zM168 755v127h146v-127h-146z" />
    <glyph glyph-name="edieresis" unicode="&#xeb;" horiz-adv-x="613" 
d="M322 -12c-161 0 -280 113 -280 277v2c0 153 109 279 265 279c179 0 261 -139 261 -291c0 -12 -1 -26 -2 -40h-373c15 -69 63 -105 131 -105c51 0 88 16 130 55l87 -77c-50 -62 -122 -100 -219 -100zM191 310h229c-9 68 -49 114 -113 114c-63 0 -104 -45 -116 -114z
M336 595v135h146v-135h-146zM128 595v135h146v-135h-146z" />
    <glyph glyph-name="Edotaccent" unicode="&#x116;" horiz-adv-x="670" 
d="M84 0v700h528v-137h-375v-142h330v-137h-330v-147h380v-137h-533zM275 755v127h150v-127h-150z" />
    <glyph glyph-name="edotaccent" unicode="&#x117;" horiz-adv-x="613" 
d="M322 -12c-161 0 -280 113 -280 277v2c0 153 109 279 265 279c179 0 261 -139 261 -291c0 -12 -1 -26 -2 -40h-373c15 -69 63 -105 131 -105c51 0 88 16 130 55l87 -77c-50 -62 -122 -100 -219 -100zM191 310h229c-9 68 -49 114 -113 114c-63 0 -104 -45 -116 -114z
M230 595v135h150v-135h-150z" />
    <glyph glyph-name="Egrave" unicode="&#xc8;" horiz-adv-x="670" 
d="M84 0v700h528v-137h-375v-142h330v-137h-330v-147h380v-137h-533zM412 755h-116l-136 100l131 57z" />
    <glyph glyph-name="egrave" unicode="&#xe8;" horiz-adv-x="613" 
d="M322 -12c-161 0 -280 113 -280 277v2c0 153 109 279 265 279c179 0 261 -139 261 -291c0 -12 -1 -26 -2 -40h-373c15 -69 63 -105 131 -105c51 0 88 16 130 55l87 -77c-50 -62 -122 -100 -219 -100zM191 310h229c-9 68 -49 114 -113 114c-63 0 -104 -45 -116 -114z
M253 595l-130 120l131 57l111 -177h-112z" />
    <glyph glyph-name="Emacron" unicode="&#x112;" horiz-adv-x="670" 
d="M84 0v700h528v-137h-375v-142h330v-137h-330v-147h380v-137h-533zM160 760v107h380v-107h-380z" />
    <glyph glyph-name="emacron" unicode="&#x113;" horiz-adv-x="613" 
d="M322 -12c-161 0 -280 113 -280 277v2c0 153 109 279 265 279c179 0 261 -139 261 -291c0 -12 -1 -26 -2 -40h-373c15 -69 63 -105 131 -105c51 0 88 16 130 55l87 -77c-50 -62 -122 -100 -219 -100zM191 310h229c-9 68 -49 114 -113 114c-63 0 -104 -45 -116 -114z
M125 600v105h360v-105h-360z" />
    <glyph glyph-name="Eogonek" unicode="&#x118;" horiz-adv-x="670" 
d="M84 0v700h528v-137h-375v-142h330v-137h-330v-147h380v-137h-45c-18 -21 -25 -40 -25 -56c0 -29 26 -43 70 -41v-67c-16 -2 -32 -3 -45 -3c-87 0 -134 38 -134 87c0 29 13 54 33 80h-387z" />
    <glyph glyph-name="eogonek" unicode="&#x119;" horiz-adv-x="613" 
d="M191 310h229c-9 68 -49 114 -113 114c-63 0 -104 -45 -116 -114zM454 165l87 -77c-22 -25 -38 -41 -61 -62c-31 -29 -46 -56 -46 -77c0 -34 26 -48 70 -46v-67c-16 -2 -32 -3 -46 -3c-87 0 -133 37 -133 82c0 24 12 49 32 75c-9 -1 -25 -2 -35 -2
c-161 0 -280 113 -280 277v2c0 153 109 279 265 279c179 0 261 -139 261 -291c0 -12 -1 -26 -2 -40h-373c15 -69 63 -105 131 -105c51 0 88 16 130 55z" />
    <glyph glyph-name="Eth" unicode="&#xd0;" horiz-adv-x="812" 
d="M114 0v284h-75v136h75v280h273c220 0 372 -151 372 -348v-2c0 -197 -152 -350 -372 -350h-273zM418 284h-150v-145h119c126 0 211 85 211 209v2c0 124 -85 211 -211 211h-119v-141h150v-136z" />
    <glyph glyph-name="eth" unicode="&#xf0;" horiz-adv-x="665" 
d="M538 653l-74 -19c90 -94 157 -208 157 -341v-2c0 -163 -107 -303 -290 -303c-166 0 -289 123 -289 285v2c0 145 105 259 238 259c50 0 83 -12 123 -35c-21 31 -50 65 -84 98l-124 -31l-26 80l76 19c-29 23 -59 45 -87 65h201l34 -28l120 30zM333 119c87 0 139 65 139 144
v2c0 79 -57 146 -141 146c-87 0 -139 -65 -139 -144v-2c0 -79 57 -146 141 -146z" />
    <glyph glyph-name="Gbreve" unicode="&#x11e;" horiz-adv-x="784" 
d="M421 -12c-218 0 -368 153 -368 360v2c0 199 155 362 367 362c126 0 202 -34 275 -96l-97 -117c-54 45 -102 71 -183 71c-112 0 -201 -99 -201 -218v-2c0 -128 88 -222 212 -222c56 0 106 14 145 42v100h-155v133h304v-304c-72 -61 -171 -111 -299 -111zM412 763
c-106 0 -181 53 -190 149h104c12 -31 36 -49 86 -49s74 18 86 49h104c-9 -96 -84 -149 -190 -149z" />
    <glyph glyph-name="gbreve" unicode="&#x11f;" horiz-adv-x="675" 
d="M308 -162c-87 0 -169 20 -237 56l52 114c55 -31 110 -49 181 -49c104 0 153 50 153 146v26c-45 -54 -94 -87 -175 -87c-125 0 -238 91 -238 250v2c0 160 115 250 238 250c83 0 132 -35 173 -80v70h152v-415c0 -96 -23 -166 -68 -211c-50 -50 -127 -72 -231 -72zM326 170
c74 0 131 51 131 124v2c0 73 -57 124 -131 124s-130 -51 -130 -124v-2c0 -74 56 -124 130 -124zM345 593c-106 0 -179 58 -188 159h102c12 -36 36 -60 86 -60s74 24 86 60h102c-9 -101 -82 -159 -188 -159z" />
    <glyph glyph-name="Gcommaaccent" unicode="&#x122;" horiz-adv-x="784" 
d="M421 -12c-218 0 -368 153 -368 360v2c0 199 155 362 367 362c126 0 202 -34 275 -96l-97 -117c-54 45 -102 71 -183 71c-112 0 -201 -99 -201 -218v-2c0 -128 88 -222 212 -222c56 0 106 14 145 42v100h-155v133h304v-304c-72 -61 -171 -111 -299 -111zM339 -297l-8 46
c53 5 79 30 76 72h-64v115h138v-97c0 -96 -50 -134 -142 -136z" />
    <glyph glyph-name="gcommaaccent" unicode="&#x123;" horiz-adv-x="675" 
d="M308 -162c-87 0 -169 20 -237 56l52 114c55 -31 110 -49 181 -49c104 0 153 50 153 146v26c-45 -54 -94 -87 -175 -87c-125 0 -238 91 -238 250v2c0 160 115 250 238 250c83 0 132 -35 173 -80v70h152v-415c0 -96 -23 -166 -68 -211c-50 -50 -127 -72 -231 -72zM326 170
c74 0 131 51 131 124v2c0 73 -57 124 -131 124s-130 -51 -130 -124v-2c0 -74 56 -124 130 -124zM415 828l8 -46c-53 -5 -79 -30 -76 -72h64v-115h-138v97c0 96 50 134 142 136z" />
    <glyph glyph-name="Gdotaccent" unicode="&#x120;" horiz-adv-x="784" 
d="M421 -12c-218 0 -368 153 -368 360v2c0 199 155 362 367 362c126 0 202 -34 275 -96l-97 -117c-54 45 -102 71 -183 71c-112 0 -201 -99 -201 -218v-2c0 -128 88 -222 212 -222c56 0 106 14 145 42v100h-155v133h304v-304c-72 -61 -171 -111 -299 -111zM337 765v127h150
v-127h-150z" />
    <glyph glyph-name="gdotaccent" unicode="&#x121;" horiz-adv-x="675" 
d="M308 -162c-87 0 -169 20 -237 56l52 114c55 -31 110 -49 181 -49c104 0 153 50 153 146v26c-45 -54 -94 -87 -175 -87c-125 0 -238 91 -238 250v2c0 160 115 250 238 250c83 0 132 -35 173 -80v70h152v-415c0 -96 -23 -166 -68 -211c-50 -50 -127 -72 -231 -72zM326 170
c74 0 131 51 131 124v2c0 73 -57 124 -131 124s-130 -51 -130 -124v-2c0 -74 56 -124 130 -124zM270 595v135h150v-135h-150z" />
    <glyph glyph-name="Hbar" unicode="&#x126;" horiz-adv-x="760" 
d="M14 512v105h70v83h154v-83h284v83h154v-83h70v-105h-70v-512h-154v281h-284v-281h-154v512h-70zM238 423h284v91h-284v-91z" />
    <glyph glyph-name="hbar" unicode="&#x127;" horiz-adv-x="623" 
d="M375 593h-155v-133c35 45 80 86 157 86c115 0 182 -76 182 -199v-347h-152v299c0 72 -34 109 -92 109s-95 -37 -95 -109v-299h-152v593h-68v85h68v52h152v-52h155v-85z" />
    <glyph glyph-name="Iacute" unicode="&#xcd;" horiz-adv-x="336" 
d="M91 0v700h154v-700h-154zM106 755l121 157l131 -57l-136 -100h-116z" />
    <glyph glyph-name="iacute" unicode="&#xed;" horiz-adv-x="302" 
d="M75 0v536h152v-536h-152zM91 595l111 177l131 -57l-130 -120h-112z" />
    <glyph glyph-name="Ibreve" unicode="&#x12c;" horiz-adv-x="336" 
d="M91 0v700h154v-700h-154zM168 753c-106 0 -181 53 -190 149h104c12 -31 36 -49 86 -49s74 18 86 49h104c-9 -96 -84 -149 -190 -149z" />
    <glyph glyph-name="ibreve" unicode="&#x12d;" horiz-adv-x="302" 
d="M75 0v536h152v-536h-152zM151 593c-106 0 -179 58 -188 159h102c12 -36 36 -60 86 -60s74 24 86 60h102c-9 -101 -82 -159 -188 -159z" />
    <glyph glyph-name="Icircumflex" unicode="&#xce;" horiz-adv-x="336" 
d="M91 0v700h154v-700h-154zM-32 755l128 147h144l128 -147h-122l-79 56l-79 -56h-120z" />
    <glyph glyph-name="icircumflex" unicode="&#xee;" horiz-adv-x="302" 
d="M75 0v536h152v-536h-152zM-44 595l123 157h144l123 -157h-117l-79 66l-79 -66h-115z" />
    <glyph glyph-name="Idieresis" unicode="&#xcf;" horiz-adv-x="336" 
d="M91 0v700h154v-700h-154zM204 755v127h146v-127h-146zM-14 755v127h146v-127h-146z" />
    <glyph glyph-name="idieresis" unicode="&#xef;" horiz-adv-x="302" 
d="M75 0v536h152v-536h-152zM182 595v135h146v-135h-146zM-26 595v135h146v-135h-146z" />
    <glyph glyph-name="Idotaccent" unicode="&#x130;" horiz-adv-x="336" 
d="M91 0v700h154v-700h-154zM93 755v127h150v-127h-150z" />
    <glyph glyph-name="dotlessi" unicode="&#x131;" horiz-adv-x="302" 
d="M75 0v536h152v-536h-152z" />
    <glyph glyph-name="Igrave" unicode="&#xcc;" horiz-adv-x="336" 
d="M91 0v700h154v-700h-154zM230 755h-116l-136 100l131 57z" />
    <glyph glyph-name="igrave" unicode="&#xec;" horiz-adv-x="302" 
d="M75 0v536h152v-536h-152zM99 595l-130 120l131 57l111 -177h-112z" />
    <glyph glyph-name="Imacron" unicode="&#x12a;" horiz-adv-x="336" 
d="M91 0v700h154v-700h-154zM-22 760v107h380v-107h-380z" />
    <glyph glyph-name="imacron" unicode="&#x12b;" horiz-adv-x="302" 
d="M75 0v536h152v-536h-152zM-29 600v105h360v-105h-360z" />
    <glyph glyph-name="Iogonek" unicode="&#x12e;" horiz-adv-x="336" 
d="M91 0v700h154v-700h-29c-18 -21 -25 -40 -25 -56c0 -29 26 -43 70 -41v-67c-16 -2 -32 -3 -45 -3c-87 0 -134 38 -134 87c0 29 13 54 33 80h-24z" />
    <glyph glyph-name="iogonek" unicode="&#x12f;" horiz-adv-x="302" 
d="M75 0v536h152v-536h-28c-18 -21 -25 -40 -25 -56c0 -29 26 -43 70 -41v-67c-16 -2 -32 -3 -45 -3c-87 0 -134 38 -134 87c0 29 13 54 33 80h-23zM71 595v135h160v-135h-160z" />
    <glyph glyph-name="Kcommaaccent" unicode="&#x136;" horiz-adv-x="730" 
d="M84 0v700h154v-306l284 306h186l-285 -297l298 -403h-185l-217 298l-81 -84v-214h-154zM293 -287l-8 46c53 5 79 30 76 72h-64v115h138v-97c0 -96 -50 -134 -142 -136z" />
    <glyph glyph-name="kcommaaccent" unicode="&#x137;" horiz-adv-x="592" 
d="M68 0v730h152v-389l178 195h182l-204 -211l211 -325h-176l-137 220l-54 -57v-163h-152zM234 -292l-8 46c53 5 79 30 76 72h-64v115h138v-97c0 -96 -50 -134 -142 -136z" />
    <glyph glyph-name="Lacute" unicode="&#x139;" horiz-adv-x="619" 
d="M84 0v700h154v-560h349v-140h-503zM119 755l121 157l131 -57l-136 -100h-116z" />
    <glyph glyph-name="lacute" unicode="&#x13a;" horiz-adv-x="302" 
d="M75 0v730h152v-730h-152zM93 770l121 157l131 -57l-136 -100h-116z" />
    <glyph glyph-name="Lcaron" unicode="&#x13d;" horiz-adv-x="619" 
d="M84 0v700h154v-560h349v-140h-503zM307 492l10 208h109v-3l-59 -205h-60z" />
    <glyph glyph-name="lcaron" unicode="&#x13e;" horiz-adv-x="302" 
d="M75 0v730h152v-730h-152zM277 592l10 208h109v-3l-59 -205h-60z" />
    <glyph glyph-name="Lcommaaccent" unicode="&#x13b;" horiz-adv-x="619" 
d="M84 0v700h154v-560h349v-140h-503zM262 -292l-8 46c53 5 79 30 76 72h-64v115h138v-97c0 -96 -50 -134 -142 -136z" />
    <glyph glyph-name="lcommaaccent" unicode="&#x13c;" horiz-adv-x="302" 
d="M75 0v730h152v-730h-152zM78 -292l-8 46c53 5 79 30 76 72h-64v115h138v-97c0 -96 -50 -134 -142 -136z" />
    <glyph glyph-name="Ldot" unicode="&#x13f;" horiz-adv-x="619" 
d="M411 315v135h144v-135h-144zM84 0v700h154v-560h349v-140h-503z" />
    <glyph glyph-name="ldot" unicode="&#x140;" horiz-adv-x="392" 
d="M287 316v125h120v-125h-120zM75 0v730h152v-730h-152z" />
    <glyph glyph-name="Lslash" unicode="&#x141;" horiz-adv-x="649" 
d="M415 376l-149 -66v-170h351v-140h-503v243l-75 -33v144l75 33v313h152v-246l149 66v-144z" />
    <glyph glyph-name="lslash" unicode="&#x142;" horiz-adv-x="362" 
d="M332 377l-76 -38v-339h-150v264l-76 -37v143l76 37v323h150v-248l76 38v-143z" />
    <glyph glyph-name="Nacute" unicode="&#x143;" horiz-adv-x="790" 
d="M84 0v700h142l328 -431v431h152v-700h-131l-339 445v-445h-152zM333 755l121 157l131 -57l-136 -100h-116z" />
    <glyph glyph-name="nacute" unicode="&#x144;" horiz-adv-x="623" 
d="M68 0v536h152v-76c35 45 80 86 157 86c115 0 182 -76 182 -199v-347h-152v299c0 72 -34 109 -92 109s-95 -37 -95 -109v-299h-152zM253 595l111 177l131 -57l-130 -120h-112z" />
    <glyph glyph-name="Ncaron" unicode="&#x147;" horiz-adv-x="790" 
d="M84 0v700h142l328 -431v431h152v-700h-131l-339 445v-445h-152zM595 902l-128 -147h-144l-128 147h122l79 -56l79 56h120z" />
    <glyph glyph-name="ncaron" unicode="&#x148;" horiz-adv-x="623" 
d="M68 0v536h152v-76c35 45 80 86 157 86c115 0 182 -76 182 -199v-347h-152v299c0 72 -34 109 -92 109s-95 -37 -95 -109v-299h-152zM508 752l-123 -157h-144l-123 157h117l79 -66l79 66h115z" />
    <glyph glyph-name="Ncommaaccent" unicode="&#x145;" horiz-adv-x="790" 
d="M84 0v700h142l328 -431v431h152v-700h-131l-339 445v-445h-152zM322 -287l-8 46c53 5 79 30 76 72h-64v115h138v-97c0 -96 -50 -134 -142 -136z" />
    <glyph glyph-name="ncommaaccent" unicode="&#x146;" horiz-adv-x="623" 
d="M68 0v536h152v-76c35 45 80 86 157 86c115 0 182 -76 182 -199v-347h-152v299c0 72 -34 109 -92 109s-95 -37 -95 -109v-299h-152zM240 -292l-8 46c53 5 79 30 76 72h-64v115h138v-97c0 -96 -50 -134 -142 -136z" />
    <glyph glyph-name="Ntilde" unicode="&#xd1;" horiz-adv-x="790" 
d="M84 0v700h142l328 -431v431h152v-700h-131l-339 445v-445h-152zM485 755c-34 0 -68 12 -97 23c-24 9 -43 16 -59 16c-31 0 -44 -17 -58 -49l-81 25c23 84 55 138 125 138c34 0 68 -12 97 -23c24 -9 43 -16 59 -16c31 0 44 17 58 49l81 -25c-23 -84 -55 -138 -125 -138z
" />
    <glyph glyph-name="ntilde" unicode="&#xf1;" horiz-adv-x="623" 
d="M68 0v536h152v-76c35 45 80 86 157 86c115 0 182 -76 182 -199v-347h-152v299c0 72 -34 109 -92 109s-95 -37 -95 -109v-299h-152zM400 595c-34 0 -66 12 -91 22c-23 9 -43 17 -59 17c-31 0 -43 -17 -57 -49l-81 25c23 84 54 138 124 138c34 0 66 -12 91 -22
c23 -9 43 -17 59 -17c31 0 43 17 57 49l81 -25c-23 -84 -54 -138 -124 -138z" />
    <glyph glyph-name="Oacute" unicode="&#xd3;" horiz-adv-x="850" 
d="M424 -12c-216 0 -371 161 -371 360v2c0 199 157 362 373 362s371 -161 371 -360v-2c0 -199 -157 -362 -373 -362zM426 130c124 0 210 98 210 218v2c0 120 -88 220 -212 220s-210 -98 -210 -218v-2c0 -120 88 -220 212 -220zM363 765l121 157l131 -57l-136 -100h-116z" />
    <glyph glyph-name="oacute" unicode="&#xf3;" horiz-adv-x="664" 
d="M331 -12c-166 0 -289 123 -289 277v2c0 154 124 279 291 279c166 0 289 -123 289 -277v-2c0 -154 -124 -279 -291 -279zM333 119c87 0 139 67 139 146v2c0 79 -57 148 -141 148c-87 0 -139 -67 -139 -146v-2c0 -79 57 -148 141 -148zM272 595l111 177l131 -57l-130 -120
h-112z" />
    <glyph glyph-name="Obreve" unicode="&#x14e;" horiz-adv-x="850" 
d="M424 -12c-216 0 -371 161 -371 360v2c0 199 157 362 373 362s371 -161 371 -360v-2c0 -199 -157 -362 -373 -362zM426 130c124 0 210 98 210 218v2c0 120 -88 220 -212 220s-210 -98 -210 -218v-2c0 -120 88 -220 212 -220zM425 763c-106 0 -181 53 -190 149h104
c12 -31 36 -49 86 -49s74 18 86 49h104c-9 -96 -84 -149 -190 -149z" />
    <glyph glyph-name="obreve" unicode="&#x14f;" horiz-adv-x="664" 
d="M331 -12c-166 0 -289 123 -289 277v2c0 154 124 279 291 279c166 0 289 -123 289 -277v-2c0 -154 -124 -279 -291 -279zM333 119c87 0 139 67 139 146v2c0 79 -57 148 -141 148c-87 0 -139 -67 -139 -146v-2c0 -79 57 -148 141 -148zM332 593c-106 0 -179 58 -188 159
h102c12 -36 36 -60 86 -60s74 24 86 60h102c-9 -101 -82 -159 -188 -159z" />
    <glyph glyph-name="Ocircumflex" unicode="&#xd4;" horiz-adv-x="850" 
d="M424 -12c-216 0 -371 161 -371 360v2c0 199 157 362 373 362s371 -161 371 -360v-2c0 -199 -157 -362 -373 -362zM426 130c124 0 210 98 210 218v2c0 120 -88 220 -212 220s-210 -98 -210 -218v-2c0 -120 88 -220 212 -220zM225 765l128 147h144l128 -147h-122l-79 56
l-79 -56h-120z" />
    <glyph glyph-name="ocircumflex" unicode="&#xf4;" horiz-adv-x="664" 
d="M331 -12c-166 0 -289 123 -289 277v2c0 154 124 279 291 279c166 0 289 -123 289 -277v-2c0 -154 -124 -279 -291 -279zM333 119c87 0 139 67 139 146v2c0 79 -57 148 -141 148c-87 0 -139 -67 -139 -146v-2c0 -79 57 -148 141 -148zM137 595l123 157h144l123 -157h-117
l-79 66l-79 -66h-115z" />
    <glyph glyph-name="Odieresis" unicode="&#xd6;" horiz-adv-x="850" 
d="M424 -12c-216 0 -371 161 -371 360v2c0 199 157 362 373 362s371 -161 371 -360v-2c0 -199 -157 -362 -373 -362zM426 130c124 0 210 98 210 218v2c0 120 -88 220 -212 220s-210 -98 -210 -218v-2c0 -120 88 -220 212 -220zM461 765v127h146v-127h-146zM243 765v127h146
v-127h-146z" />
    <glyph glyph-name="odieresis" unicode="&#xf6;" horiz-adv-x="664" 
d="M331 -12c-166 0 -289 123 -289 277v2c0 154 124 279 291 279c166 0 289 -123 289 -277v-2c0 -154 -124 -279 -291 -279zM333 119c87 0 139 67 139 146v2c0 79 -57 148 -141 148c-87 0 -139 -67 -139 -146v-2c0 -79 57 -148 141 -148zM363 595v135h146v-135h-146zM155 595
v135h146v-135h-146z" />
    <glyph glyph-name="OE" unicode="&#x152;" horiz-adv-x="1075" 
d="M425 0c-220 0 -372 151 -372 348v2c0 197 152 350 372 350h592v-137h-350v-142h305v-137h-305v-147h355v-137h-597zM425 139h89v422h-89c-126 0 -211 -85 -211 -209v-2c0 -124 85 -211 211 -211z" />
    <glyph glyph-name="oe" unicode="&#x153;" horiz-adv-x="1033" 
d="M322 -12c-153 0 -280 123 -280 277v2c0 154 127 279 286 279c83 0 154 -34 202 -89c47 55 116 89 197 89c179 0 261 -139 261 -291c0 -12 -1 -26 -2 -40h-373c15 -69 63 -105 131 -105c51 0 88 16 130 55l87 -77c-50 -62 -122 -100 -219 -100c-88 0 -163 34 -214 91
c-49 -56 -122 -91 -206 -91zM611 310h229c-9 68 -49 114 -113 114c-63 0 -104 -45 -116 -114zM328 119c84 0 134 67 134 146v2c0 79 -55 148 -136 148c-84 0 -134 -69 -134 -146v-2c0 -79 55 -148 136 -148z" />
    <glyph glyph-name="Ograve" unicode="&#xd2;" horiz-adv-x="850" 
d="M424 -12c-216 0 -371 161 -371 360v2c0 199 157 362 373 362s371 -161 371 -360v-2c0 -199 -157 -362 -373 -362zM426 130c124 0 210 98 210 218v2c0 120 -88 220 -212 220s-210 -98 -210 -218v-2c0 -120 88 -220 212 -220zM487 765h-116l-136 100l131 57z" />
    <glyph glyph-name="ograve" unicode="&#xf2;" horiz-adv-x="664" 
d="M331 -12c-166 0 -289 123 -289 277v2c0 154 124 279 291 279c166 0 289 -123 289 -277v-2c0 -154 -124 -279 -291 -279zM333 119c87 0 139 67 139 146v2c0 79 -57 148 -141 148c-87 0 -139 -67 -139 -146v-2c0 -79 57 -148 141 -148zM280 595l-130 120l131 57l111 -177
h-112z" />
    <glyph glyph-name="Ohungarumlaut" unicode="&#x150;" horiz-adv-x="850" 
d="M424 -12c-216 0 -371 161 -371 360v2c0 199 157 362 373 362s371 -161 371 -360v-2c0 -199 -157 -362 -373 -362zM426 130c124 0 210 98 210 218v2c0 120 -88 220 -212 220s-210 -98 -210 -218v-2c0 -120 88 -220 212 -220zM262 765l121 157l126 -57l-136 -100h-111z
M452 765l121 157l126 -57l-136 -100h-111z" />
    <glyph glyph-name="ohungarumlaut" unicode="&#x151;" horiz-adv-x="664" 
d="M331 -12c-166 0 -289 123 -289 277v2c0 154 124 279 291 279c166 0 289 -123 289 -277v-2c0 -154 -124 -279 -291 -279zM333 119c87 0 139 67 139 146v2c0 79 -57 148 -141 148c-87 0 -139 -67 -139 -146v-2c0 -79 57 -148 141 -148zM359 595l111 177l128 -57l-132 -120
h-107zM174 595l109 177l128 -57l-130 -120h-107z" />
    <glyph glyph-name="Omacron" unicode="&#x14c;" horiz-adv-x="850" 
d="M424 -12c-216 0 -371 161 -371 360v2c0 199 157 362 373 362s371 -161 371 -360v-2c0 -199 -157 -362 -373 -362zM426 130c124 0 210 98 210 218v2c0 120 -88 220 -212 220s-210 -98 -210 -218v-2c0 -120 88 -220 212 -220zM235 770v107h380v-107h-380z" />
    <glyph glyph-name="omacron" unicode="&#x14d;" horiz-adv-x="664" 
d="M331 -12c-166 0 -289 123 -289 277v2c0 154 124 279 291 279c166 0 289 -123 289 -277v-2c0 -154 -124 -279 -291 -279zM333 119c87 0 139 67 139 146v2c0 79 -57 148 -141 148c-87 0 -139 -67 -139 -146v-2c0 -79 57 -148 141 -148zM152 600v105h360v-105h-360z" />
    <glyph glyph-name="Oslash" unicode="&#xd8;" horiz-adv-x="850" 
d="M658 705h147l-98 -114c57 -63 90 -147 90 -239v-2c0 -199 -157 -362 -373 -362c-73 0 -138 18 -193 50l-39 -43h-147l98 114c-57 63 -90 147 -90 239v2c0 199 157 362 373 362c72 0 138 -19 193 -50zM426 127c125 0 213 100 213 221v2c0 45 -13 88 -35 124l-277 -323
c29 -15 62 -24 99 -24zM211 350c0 -46 12 -88 35 -124l277 323c-29 15 -63 24 -99 24c-125 0 -213 -100 -213 -221v-2z" />
    <glyph glyph-name="oslash" unicode="&#xf8;" horiz-adv-x="664" 
d="M504 541h133l-81 -93c41 -48 66 -111 66 -179v-2c0 -154 -124 -279 -291 -279c-54 0 -102 13 -144 35l-27 -28h-133l80 92c-41 48 -65 110 -65 178v2c0 154 124 279 291 279c53 0 102 -13 143 -35zM188 267c0 -26 6 -50 16 -72l184 212c-17 7 -36 12 -57 12
c-90 0 -143 -69 -143 -150v-2zM333 115c90 0 143 69 143 150v2c0 25 -6 50 -17 72l-183 -213c17 -7 36 -11 57 -11z" />
    <glyph glyph-name="Oslashacute" unicode="&#x1fe;" horiz-adv-x="850" 
d="M658 705h147l-98 -114c57 -63 90 -147 90 -239v-2c0 -199 -157 -362 -373 -362c-73 0 -138 18 -193 50l-39 -43h-147l98 114c-57 63 -90 147 -90 239v2c0 199 157 362 373 362c72 0 138 -19 193 -50zM426 127c125 0 213 100 213 221v2c0 45 -13 88 -35 124l-277 -323
c29 -15 62 -24 99 -24zM211 350c0 -46 12 -88 35 -124l277 323c-29 15 -63 24 -99 24c-125 0 -213 -100 -213 -221v-2zM363 765l121 157l131 -57l-136 -100h-116z" />
    <glyph glyph-name="oslashacute" unicode="&#x1ff;" horiz-adv-x="664" 
d="M504 541h133l-81 -93c41 -48 66 -111 66 -179v-2c0 -154 -124 -279 -291 -279c-54 0 -102 13 -144 35l-27 -28h-133l80 92c-41 48 -65 110 -65 178v2c0 154 124 279 291 279c53 0 102 -13 143 -35zM272 595l111 177l131 -57l-130 -120h-112zM188 267c0 -26 6 -50 16 -72
l184 212c-17 7 -36 12 -57 12c-90 0 -143 -69 -143 -150v-2zM333 115c90 0 143 69 143 150v2c0 25 -6 50 -17 72l-183 -213c17 -7 36 -11 57 -11z" />
    <glyph glyph-name="Otilde" unicode="&#xd5;" horiz-adv-x="850" 
d="M424 -12c-216 0 -371 161 -371 360v2c0 199 157 362 373 362s371 -161 371 -360v-2c0 -199 -157 -362 -373 -362zM426 130c124 0 210 98 210 218v2c0 120 -88 220 -212 220s-210 -98 -210 -218v-2c0 -120 88 -220 212 -220zM515 765c-34 0 -68 12 -97 23
c-24 9 -43 16 -59 16c-31 0 -44 -17 -58 -49l-81 25c23 84 55 138 125 138c34 0 68 -12 97 -23c24 -9 43 -16 59 -16c31 0 44 17 58 49l81 -25c-23 -84 -55 -138 -125 -138z" />
    <glyph glyph-name="otilde" unicode="&#xf5;" horiz-adv-x="664" 
d="M331 -12c-166 0 -289 123 -289 277v2c0 154 124 279 291 279c166 0 289 -123 289 -277v-2c0 -154 -124 -279 -291 -279zM333 119c87 0 139 67 139 146v2c0 79 -57 148 -141 148c-87 0 -139 -67 -139 -146v-2c0 -79 57 -148 141 -148zM419 595c-34 0 -66 12 -91 22
c-23 9 -43 17 -59 17c-31 0 -43 -17 -57 -49l-81 25c23 84 54 138 124 138c34 0 66 -12 91 -22c23 -9 43 -17 59 -17c31 0 43 17 57 49l81 -25c-23 -84 -54 -138 -124 -138z" />
    <glyph glyph-name="Racute" unicode="&#x154;" horiz-adv-x="723" 
d="M84 0v700h320c89 0 158 -25 204 -71c39 -39 60 -94 60 -160v-2c0 -113 -61 -184 -150 -217l171 -250h-180l-150 224h-121v-224h-154zM238 360h156c75 0 118 40 118 99v2c0 66 -46 100 -121 100h-153v-201zM291 755l121 157l131 -57l-136 -100h-116z" />
    <glyph glyph-name="racute" unicode="&#x155;" horiz-adv-x="418" 
d="M68 0v536h152v-108c31 74 81 122 171 118v-159h-8c-101 0 -163 -61 -163 -189v-198h-152zM169 595l111 177l131 -57l-130 -120h-112z" />
    <glyph glyph-name="Rcaron" unicode="&#x158;" horiz-adv-x="723" 
d="M84 0v700h320c89 0 158 -25 204 -71c39 -39 60 -94 60 -160v-2c0 -113 -61 -184 -150 -217l171 -250h-180l-150 224h-121v-224h-154zM238 360h156c75 0 118 40 118 99v2c0 66 -46 100 -121 100h-153v-201zM553 902l-128 -147h-144l-128 147h122l79 -56l79 56h120z" />
    <glyph glyph-name="rcaron" unicode="&#x159;" horiz-adv-x="418" 
d="M68 0v536h152v-108c31 74 81 122 171 118v-159h-8c-101 0 -163 -61 -163 -189v-198h-152zM424 752l-123 -157h-144l-123 157h117l79 -66l79 66h115z" />
    <glyph glyph-name="Rcommaaccent" unicode="&#x156;" horiz-adv-x="723" 
d="M84 0v700h320c89 0 158 -25 204 -71c39 -39 60 -94 60 -160v-2c0 -113 -61 -184 -150 -217l171 -250h-180l-150 224h-121v-224h-154zM238 360h156c75 0 118 40 118 99v2c0 66 -46 100 -121 100h-153v-201zM280 -287l-8 46c53 5 79 30 76 72h-64v115h138v-97
c0 -96 -50 -134 -142 -136z" />
    <glyph glyph-name="rcommaaccent" unicode="&#x157;" horiz-adv-x="418" 
d="M68 0v536h152v-108c31 74 81 122 171 118v-159h-8c-101 0 -163 -61 -163 -189v-198h-152zM77 -292l-8 46c53 5 79 30 76 72h-64v115h138v-97c0 -96 -50 -134 -142 -136z" />
    <glyph glyph-name="Sacute" unicode="&#x15a;" horiz-adv-x="640" 
d="M333 -10c-106 0 -213 37 -297 112l91 109c63 -52 129 -85 209 -85c63 0 101 25 101 66v2c0 39 -24 59 -141 89c-141 36 -232 75 -232 214v2c0 127 102 211 245 211c102 0 189 -32 260 -89l-80 -116c-62 43 -123 69 -182 69s-90 -27 -90 -61v-2c0 -46 30 -61 151 -92
c142 -37 222 -88 222 -210v-2c0 -139 -106 -217 -257 -217zM262 765l121 157l131 -57l-136 -100h-116z" />
    <glyph glyph-name="sacute" unicode="&#x15b;" horiz-adv-x="502" 
d="M256 -10c-75 0 -159 25 -230 81l65 100c58 -42 119 -64 169 -64c44 0 64 16 64 40v2c0 33 -52 44 -111 62c-75 22 -160 57 -160 161v2c0 109 88 170 196 170c68 0 142 -23 200 -62l-58 -105c-53 31 -106 50 -145 50c-37 0 -56 -16 -56 -37v-2c0 -30 51 -44 109 -64
c75 -25 162 -61 162 -159v-2c0 -119 -89 -173 -205 -173zM194 595l111 177l131 -57l-130 -120h-112z" />
    <glyph glyph-name="Scaron" unicode="&#x160;" horiz-adv-x="640" 
d="M333 -10c-106 0 -213 37 -297 112l91 109c63 -52 129 -85 209 -85c63 0 101 25 101 66v2c0 39 -24 59 -141 89c-141 36 -232 75 -232 214v2c0 127 102 211 245 211c102 0 189 -32 260 -89l-80 -116c-62 43 -123 69 -182 69s-90 -27 -90 -61v-2c0 -46 30 -61 151 -92
c142 -37 222 -88 222 -210v-2c0 -139 -106 -217 -257 -217zM524 912l-128 -147h-144l-128 147h122l79 -56l79 56h120z" />
    <glyph glyph-name="scaron" unicode="&#x161;" horiz-adv-x="502" 
d="M256 -10c-75 0 -159 25 -230 81l65 100c58 -42 119 -64 169 -64c44 0 64 16 64 40v2c0 33 -52 44 -111 62c-75 22 -160 57 -160 161v2c0 109 88 170 196 170c68 0 142 -23 200 -62l-58 -105c-53 31 -106 50 -145 50c-37 0 -56 -16 -56 -37v-2c0 -30 51 -44 109 -64
c75 -25 162 -61 162 -159v-2c0 -119 -89 -173 -205 -173zM449 752l-123 -157h-144l-123 157h117l79 -66l79 66h115z" />
    <glyph glyph-name="Scedilla" unicode="&#x15e;" horiz-adv-x="640" 
d="M315 -173l-127 53l78 115c-83 12 -164 47 -230 107l91 109c63 -52 129 -85 209 -85c63 0 101 25 101 66v2c0 39 -24 59 -141 89c-141 36 -232 75 -232 214v2c0 127 102 211 245 211c102 0 189 -32 260 -89l-80 -116c-62 43 -123 69 -182 69s-90 -27 -90 -61v-2
c0 -46 30 -61 151 -92c142 -37 222 -88 222 -210v-2c0 -124 -84 -199 -208 -214z" />
    <glyph glyph-name="scedilla" unicode="&#x15f;" horiz-adv-x="502" 
d="M236 -173l-127 53l80 117c-56 10 -113 34 -163 74l65 100c58 -42 119 -64 169 -64c44 0 64 16 64 40v2c0 33 -52 44 -111 62c-75 22 -160 57 -160 161v2c0 109 88 170 196 170c68 0 142 -23 200 -62l-58 -105c-53 31 -106 50 -145 50c-37 0 -56 -16 -56 -37v-2
c0 -30 51 -44 109 -64c75 -25 162 -61 162 -159v-2c0 -103 -66 -157 -158 -170z" />
    <glyph glyph-name="Scommaaccent" unicode="&#x218;" horiz-adv-x="640" 
d="M333 -10c-106 0 -213 37 -297 112l91 109c63 -52 129 -85 209 -85c63 0 101 25 101 66v2c0 39 -24 59 -141 89c-141 36 -232 75 -232 214v2c0 127 102 211 245 211c102 0 189 -32 260 -89l-80 -116c-62 43 -123 69 -182 69s-90 -27 -90 -61v-2c0 -46 30 -61 151 -92
c142 -37 222 -88 222 -210v-2c0 -139 -106 -217 -257 -217zM251 -297l-8 46c53 5 79 30 76 72h-64v115h138v-97c0 -96 -50 -134 -142 -136z" />
    <glyph glyph-name="scommaaccent" unicode="&#x219;" horiz-adv-x="502" 
d="M256 -10c-75 0 -159 25 -230 81l65 100c58 -42 119 -64 169 -64c44 0 64 16 64 40v2c0 33 -52 44 -111 62c-75 22 -160 57 -160 161v2c0 109 88 170 196 170c68 0 142 -23 200 -62l-58 -105c-53 31 -106 50 -145 50c-37 0 -56 -16 -56 -37v-2c0 -30 51 -44 109 -64
c75 -25 162 -61 162 -159v-2c0 -119 -89 -173 -205 -173zM181 -292l-8 46c53 5 79 30 76 72h-64v115h138v-97c0 -96 -50 -134 -142 -136z" />
    <glyph glyph-name="Tcaron" unicode="&#x164;" horiz-adv-x="648" 
d="M247 0v558h-213v142h580v-142h-213v-558h-154zM524 902l-128 -147h-144l-128 147h122l79 -56l79 56h120z" />
    <glyph glyph-name="tcaron" unicode="&#x165;" horiz-adv-x="415" 
d="M249 -9c-93 0 -156 37 -156 161v254h-64v130h64v137h152v-137h126v-130h-126v-229c0 -35 15 -52 49 -52c28 0 53 7 75 19v-122c-32 -19 -69 -31 -120 -31zM309 592l10 208h109v-3l-59 -205h-60z" />
    <glyph glyph-name="Tcommaaccent" unicode="&#x162;" horiz-adv-x="648" 
d="M247 0v558h-213v142h580v-142h-213v-558h-154zM251 -292l-8 46c53 5 79 30 76 72h-64v115h138v-97c0 -96 -50 -134 -142 -136z" />
    <glyph glyph-name="tcommaaccent" unicode="&#x163;" horiz-adv-x="415" 
d="M249 -9c-93 0 -156 37 -156 161v254h-64v130h64v137h152v-137h126v-130h-126v-229c0 -35 15 -52 49 -52c28 0 53 7 75 19v-122c-32 -19 -69 -31 -120 -31zM149 -292l-8 46c53 5 79 30 76 72h-64v115h138v-97c0 -96 -50 -134 -142 -136z" />
    <glyph glyph-name="Thorn" unicode="&#xde;" horiz-adv-x="673" 
d="M84 0v700h154v-102h132c167 0 268 -99 268 -242v-2c0 -162 -126 -246 -283 -246h-117v-108h-154zM238 245h122c77 0 122 46 122 106v2c0 69 -48 106 -125 106h-119v-214z" />
    <glyph glyph-name="thorn" unicode="&#xfe;" horiz-adv-x="675" 
d="M68 -160v890h152v-271c37 50 88 87 167 87c125 0 244 -98 244 -277v-2c0 -179 -117 -277 -244 -277c-81 0 -131 37 -167 80v-230h-152zM348 119c71 0 131 58 131 148v2c0 89 -60 148 -131 148s-130 -59 -130 -148v-2c0 -89 59 -148 130 -148z" />
    <glyph glyph-name="Uacute" unicode="&#xda;" horiz-adv-x="756" 
d="M376 -11c-188 0 -303 105 -303 311v400h154v-396c0 -114 57 -173 151 -173s151 57 151 168v401h154v-395c0 -212 -119 -316 -307 -316zM316 755l121 157l131 -57l-136 -100h-116z" />
    <glyph glyph-name="uacute" unicode="&#xfa;" horiz-adv-x="623" 
d="M246 -10c-115 0 -182 76 -182 199v347h152v-299c0 -72 34 -109 92 -109s95 37 95 109v299h152v-536h-152v76c-35 -45 -80 -86 -157 -86zM249 595l111 177l131 -57l-130 -120h-112z" />
    <glyph glyph-name="Ubreve" unicode="&#x16c;" horiz-adv-x="756" 
d="M376 -11c-188 0 -303 105 -303 311v400h154v-396c0 -114 57 -173 151 -173s151 57 151 168v401h154v-395c0 -212 -119 -316 -307 -316zM378 743c-106 0 -181 53 -190 149h104c12 -31 36 -49 86 -49s74 18 86 49h104c-9 -96 -84 -149 -190 -149z" />
    <glyph glyph-name="ubreve" unicode="&#x16d;" horiz-adv-x="623" 
d="M246 -10c-115 0 -182 76 -182 199v347h152v-299c0 -72 34 -109 92 -109s95 37 95 109v299h152v-536h-152v76c-35 -45 -80 -86 -157 -86zM309 593c-106 0 -179 58 -188 159h102c12 -36 36 -60 86 -60s74 24 86 60h102c-9 -101 -82 -159 -188 -159z" />
    <glyph glyph-name="Ucircumflex" unicode="&#xdb;" horiz-adv-x="756" 
d="M376 -11c-188 0 -303 105 -303 311v400h154v-396c0 -114 57 -173 151 -173s151 57 151 168v401h154v-395c0 -212 -119 -316 -307 -316zM178 755l128 147h144l128 -147h-122l-79 56l-79 -56h-120z" />
    <glyph glyph-name="ucircumflex" unicode="&#xfb;" horiz-adv-x="623" 
d="M246 -10c-115 0 -182 76 -182 199v347h152v-299c0 -72 34 -109 92 -109s95 37 95 109v299h152v-536h-152v76c-35 -45 -80 -86 -157 -86zM114 595l123 157h144l123 -157h-117l-79 66l-79 -66h-115z" />
    <glyph glyph-name="Udieresis" unicode="&#xdc;" horiz-adv-x="756" 
d="M376 -11c-188 0 -303 105 -303 311v400h154v-396c0 -114 57 -173 151 -173s151 57 151 168v401h154v-395c0 -212 -119 -316 -307 -316zM414 755v127h146v-127h-146zM196 755v127h146v-127h-146z" />
    <glyph glyph-name="udieresis" unicode="&#xfc;" horiz-adv-x="623" 
d="M246 -10c-115 0 -182 76 -182 199v347h152v-299c0 -72 34 -109 92 -109s95 37 95 109v299h152v-536h-152v76c-35 -45 -80 -86 -157 -86zM340 595v135h146v-135h-146zM132 595v135h146v-135h-146z" />
    <glyph glyph-name="Ugrave" unicode="&#xd9;" horiz-adv-x="756" 
d="M376 -11c-188 0 -303 105 -303 311v400h154v-396c0 -114 57 -173 151 -173s151 57 151 168v401h154v-395c0 -212 -119 -316 -307 -316zM440 755h-116l-136 100l131 57z" />
    <glyph glyph-name="ugrave" unicode="&#xf9;" horiz-adv-x="623" 
d="M246 -10c-115 0 -182 76 -182 199v347h152v-299c0 -72 34 -109 92 -109s95 37 95 109v299h152v-536h-152v76c-35 -45 -80 -86 -157 -86zM257 595l-130 120l131 57l111 -177h-112z" />
    <glyph glyph-name="Uhungarumlaut" unicode="&#x170;" horiz-adv-x="756" 
d="M376 -11c-188 0 -303 105 -303 311v400h154v-396c0 -114 57 -173 151 -173s151 57 151 168v401h154v-395c0 -212 -119 -316 -307 -316zM215 755l121 157l126 -57l-136 -100h-111zM405 755l121 157l126 -57l-136 -100h-111z" />
    <glyph glyph-name="uhungarumlaut" unicode="&#x171;" horiz-adv-x="623" 
d="M246 -10c-115 0 -182 76 -182 199v347h152v-299c0 -72 34 -109 92 -109s95 37 95 109v299h152v-536h-152v76c-35 -45 -80 -86 -157 -86zM336 595l111 177l128 -57l-132 -120h-107zM151 595l109 177l128 -57l-130 -120h-107z" />
    <glyph glyph-name="Umacron" unicode="&#x16a;" horiz-adv-x="756" 
d="M376 -11c-188 0 -303 105 -303 311v400h154v-396c0 -114 57 -173 151 -173s151 57 151 168v401h154v-395c0 -212 -119 -316 -307 -316zM188 760v107h380v-107h-380z" />
    <glyph glyph-name="umacron" unicode="&#x16b;" horiz-adv-x="623" 
d="M246 -10c-115 0 -182 76 -182 199v347h152v-299c0 -72 34 -109 92 -109s95 37 95 109v299h152v-536h-152v76c-35 -45 -80 -86 -157 -86zM129 600v105h360v-105h-360z" />
    <glyph glyph-name="Uogonek" unicode="&#x172;" horiz-adv-x="756" 
d="M467 -97v-67c-16 -2 -32 -3 -45 -3c-87 0 -134 38 -134 87c0 26 11 49 28 73c-152 20 -243 124 -243 307v400h154v-396c0 -114 57 -173 151 -173s151 57 151 168v401h154v-395c0 -197 -103 -301 -269 -314c-13 -18 -17 -33 -17 -47c0 -29 26 -43 70 -41z" />
    <glyph glyph-name="uogonek" unicode="&#x173;" horiz-adv-x="623" 
d="M565 -97v-67c-16 -2 -32 -3 -45 -3c-87 0 -134 38 -134 87c0 29 13 54 33 80h-16v76c-35 -45 -80 -86 -157 -86c-115 0 -182 76 -182 199v347h152v-299c0 -72 34 -109 92 -109s95 37 95 109v299h152v-536h-35c-18 -21 -25 -40 -25 -56c0 -29 26 -43 70 -41z" />
    <glyph glyph-name="Uring" unicode="&#x16e;" horiz-adv-x="756" 
d="M376 -11c-188 0 -303 105 -303 311v400h154v-396c0 -114 57 -173 151 -173s151 57 151 168v401h154v-395c0 -212 -119 -316 -307 -316zM378 728c-67 0 -124 45 -124 110s57 110 124 110s124 -45 124 -110s-57 -110 -124 -110zM378 782c38 0 63 25 63 56s-25 56 -63 56
s-63 -25 -63 -56s25 -56 63 -56z" />
    <glyph glyph-name="uring" unicode="&#x16f;" horiz-adv-x="623" 
d="M246 -10c-115 0 -182 76 -182 199v347h152v-299c0 -72 34 -109 92 -109s95 37 95 109v299h152v-536h-152v76c-35 -45 -80 -86 -157 -86zM309 578c-67 0 -121 52 -121 117s54 117 121 117s121 -52 121 -117s-54 -117 -121 -117zM309 629c36 0 66 30 66 66s-30 66 -66 66
s-66 -30 -66 -66s30 -66 66 -66z" />
    <glyph glyph-name="Wacute" unicode="&#x1e82;" horiz-adv-x="1122" 
d="M269 -5l-239 705h165l145 -474l157 476h132l157 -476l145 474h161l-239 -705h-134l-158 458l-158 -458h-134zM499 755l121 157l131 -57l-136 -100h-116z" />
    <glyph glyph-name="wacute" unicode="&#x1e83;" horiz-adv-x="861" 
d="M189 -4l-165 540h154l86 -325l101 327h131l102 -328l88 326h151l-167 -540h-137l-103 329l-105 -329h-136zM370 595l111 177l131 -57l-130 -120h-112z" />
    <glyph glyph-name="Wcircumflex" unicode="&#x174;" horiz-adv-x="1122" 
d="M269 -5l-239 705h165l145 -474l157 476h132l157 -476l145 474h161l-239 -705h-134l-158 458l-158 -458h-134zM361 755l128 147h144l128 -147h-122l-79 56l-79 -56h-120z" />
    <glyph glyph-name="wcircumflex" unicode="&#x175;" horiz-adv-x="861" 
d="M189 -4l-165 540h154l86 -325l101 327h131l102 -328l88 326h151l-167 -540h-137l-103 329l-105 -329h-136zM235 595l123 157h144l123 -157h-117l-79 66l-79 -66h-115z" />
    <glyph glyph-name="Wdieresis" unicode="&#x1e84;" horiz-adv-x="1122" 
d="M269 -5l-239 705h165l145 -474l157 476h132l157 -476l145 474h161l-239 -705h-134l-158 458l-158 -458h-134zM597 755v127h146v-127h-146zM379 755v127h146v-127h-146z" />
    <glyph glyph-name="wdieresis" unicode="&#x1e85;" horiz-adv-x="861" 
d="M189 -4l-165 540h154l86 -325l101 327h131l102 -328l88 326h151l-167 -540h-137l-103 329l-105 -329h-136zM461 595v135h146v-135h-146zM253 595v135h146v-135h-146z" />
    <glyph glyph-name="Wgrave" unicode="&#x1e80;" horiz-adv-x="1122" 
d="M269 -5l-239 705h165l145 -474l157 476h132l157 -476l145 474h161l-239 -705h-134l-158 458l-158 -458h-134zM623 755h-116l-136 100l131 57z" />
    <glyph glyph-name="wgrave" unicode="&#x1e81;" horiz-adv-x="861" 
d="M189 -4l-165 540h154l86 -325l101 327h131l102 -328l88 326h151l-167 -540h-137l-103 329l-105 -329h-136zM378 595l-130 120l131 57l111 -177h-112z" />
    <glyph glyph-name="Yacute" unicode="&#xdd;" horiz-adv-x="716" 
d="M281 0v276l-269 424h180l167 -281l170 281h175l-269 -421v-279h-154zM296 755l121 157l131 -57l-136 -100h-116z" />
    <glyph glyph-name="yacute" unicode="&#xfd;" 
d="M303 171l117 365h158l-206 -549c-41 -109 -85 -150 -176 -150c-55 0 -96 14 -135 37l51 110c20 -12 45 -21 65 -21c26 0 40 8 53 35l-210 538h161zM239 595l111 177l131 -57l-130 -120h-112z" />
    <glyph glyph-name="Ycircumflex" unicode="&#x176;" horiz-adv-x="716" 
d="M281 0v276l-269 424h180l167 -281l170 281h175l-269 -421v-279h-154zM158 755l128 147h144l128 -147h-122l-79 56l-79 -56h-120z" />
    <glyph glyph-name="ycircumflex" unicode="&#x177;" 
d="M303 171l117 365h158l-206 -549c-41 -109 -85 -150 -176 -150c-55 0 -96 14 -135 37l51 110c20 -12 45 -21 65 -21c26 0 40 8 53 35l-210 538h161zM104 595l123 157h144l123 -157h-117l-79 66l-79 -66h-115z" />
    <glyph glyph-name="Ydieresis" unicode="&#x178;" horiz-adv-x="716" 
d="M281 0v276l-269 424h180l167 -281l170 281h175l-269 -421v-279h-154zM394 755v127h146v-127h-146zM176 755v127h146v-127h-146z" />
    <glyph glyph-name="ydieresis" unicode="&#xff;" 
d="M303 171l117 365h158l-206 -549c-41 -109 -85 -150 -176 -150c-55 0 -96 14 -135 37l51 110c20 -12 45 -21 65 -21c26 0 40 8 53 35l-210 538h161zM330 595v135h146v-135h-146zM122 595v135h146v-135h-146z" />
    <glyph glyph-name="Ygrave" unicode="&#x1ef2;" horiz-adv-x="716" 
d="M281 0v276l-269 424h180l167 -281l170 281h175l-269 -421v-279h-154zM420 755h-116l-136 100l131 57z" />
    <glyph glyph-name="ygrave" unicode="&#x1ef3;" 
d="M303 171l117 365h158l-206 -549c-41 -109 -85 -150 -176 -150c-55 0 -96 14 -135 37l51 110c20 -12 45 -21 65 -21c26 0 40 8 53 35l-210 538h161zM247 595l-130 120l131 57l111 -177h-112z" />
    <glyph glyph-name="Zacute" unicode="&#x179;" horiz-adv-x="708" 
d="M63 0v117l385 448h-373v135h571v-117l-385 -448h385v-135h-583zM298 755l121 157l131 -57l-136 -100h-116z" />
    <glyph glyph-name="zacute" unicode="&#x17a;" horiz-adv-x="563" 
d="M50 0v107l277 306h-268v123h457v-107l-278 -306h278v-123h-466zM223 595l111 177l131 -57l-130 -120h-112z" />
    <glyph glyph-name="Zcaron" unicode="&#x17d;" horiz-adv-x="708" 
d="M63 0v117l385 448h-373v135h571v-117l-385 -448h385v-135h-583zM560 902l-128 -147h-144l-128 147h122l79 -56l79 56h120z" />
    <glyph glyph-name="zcaron" unicode="&#x17e;" horiz-adv-x="563" 
d="M50 0v107l277 306h-268v123h457v-107l-278 -306h278v-123h-466zM478 752l-123 -157h-144l-123 157h117l79 -66l79 66h115z" />
    <glyph glyph-name="Zdotaccent" unicode="&#x17b;" horiz-adv-x="708" 
d="M63 0v117l385 448h-373v135h571v-117l-385 -448h385v-135h-583zM285 755v127h150v-127h-150z" />
    <glyph glyph-name="zdotaccent" unicode="&#x17c;" horiz-adv-x="563" 
d="M50 0v107l277 306h-268v123h457v-107l-278 -306h278v-123h-466zM208 595v135h150v-135h-150z" />
    <glyph glyph-name="schwa" unicode="&#x259;" horiz-adv-x="613" 
d="M291 548c161 0 280 -113 280 -277v-2c0 -153 -109 -279 -265 -279c-179 0 -261 139 -261 291c0 12 1 26 2 40h373c-15 69 -63 105 -131 105c-51 0 -88 -16 -130 -55l-87 77c50 62 122 100 219 100zM422 226h-229c9 -68 49 -114 113 -114c63 0 104 45 116 114z" />
    <glyph glyph-name="germandbls" unicode="&#xdf;" horiz-adv-x="620" 
d="M299 -2v114c82 4 128 35 128 92v2c0 54 -55 87 -128 97v100c49 31 88 69 88 124v2c0 50 -31 80 -80 80c-52 0 -88 -39 -88 -100v-509h-151v503c0 148 96 234 246 234c143 0 223 -85 223 -194v-2c0 -86 -41 -129 -91 -163c67 -29 131 -81 131 -177v-2
c0 -133 -109 -208 -278 -201z" />
    <glyph glyph-name="zero" unicode="0" horiz-adv-x="730" 
d="M364 -12c-187 0 -310 157 -310 360v2c0 203 126 362 312 362c185 0 310 -157 310 -360v-2c0 -203 -125 -362 -312 -362zM366 127c93 0 152 94 152 221v2c0 127 -62 223 -154 223s-152 -93 -152 -221v-2c0 -128 61 -223 154 -223z" />
    <glyph glyph-name="one" unicode="1" horiz-adv-x="422" 
d="M178 0v549l-122 -30l-32 126l201 60h105v-705h-152z" />
    <glyph glyph-name="two" unicode="2" horiz-adv-x="623" 
d="M49 0v122l233 191c87 72 121 110 121 168c0 59 -39 91 -94 91c-54 0 -91 -30 -143 -94l-108 87c69 94 136 145 261 145c145 0 241 -85 241 -216v-2c0 -117 -60 -175 -184 -271l-114 -88h305v-133h-518z" />
    <glyph glyph-name="three" unicode="3" horiz-adv-x="621" 
d="M311 -12c-126 0 -213 50 -273 121l106 101c48 -54 98 -84 169 -84c58 0 99 33 99 85v2c0 57 -51 89 -137 89h-64l-24 98l167 168h-275v132h473v-116l-177 -169c95 -16 188 -66 188 -196v-2c0 -132 -96 -229 -252 -229z" />
    <glyph glyph-name="three.alt" horiz-adv-x="614" 
d="M314 -12c-115 0 -210 46 -277 119l103 100c47 -49 101 -81 176 -81c66 0 103 32 103 82v2c0 52 -49 79 -132 79h-77v128h81c71 0 109 34 109 81v2c0 43 -37 74 -101 74c-59 0 -100 -33 -143 -81l-106 90c63 79 131 129 251 129c152 0 250 -78 250 -188v-2
c0 -84 -38 -132 -92 -162c64 -28 111 -70 111 -152v-2c0 -124 -92 -218 -256 -218z" />
    <glyph glyph-name="four" unicode="4" horiz-adv-x="689" 
d="M398 0v151h-342l-25 109l384 445h130v-429h94v-125h-94v-151h-147zM212 276h186v218z" />
    <glyph glyph-name="five" unicode="5" horiz-adv-x="630" 
d="M305 -12c-112 0 -194 40 -262 105l93 111c53 -48 105 -76 167 -76c72 0 117 35 117 97v2c0 60 -51 95 -124 95c-44 0 -84 -12 -117 -26l-89 59l20 345h430v-135h-298l-8 -121c28 7 53 12 92 12c136 0 245 -66 245 -224v-2c0 -148 -105 -242 -266 -242z" />
    <glyph glyph-name="six" unicode="6" horiz-adv-x="662" 
d="M339 -12c-91 0 -153 26 -202 75c-51 51 -83 126 -83 265v2c0 216 98 382 307 382c95 0 157 -28 219 -77l-81 -119c-46 35 -83 56 -143 56c-105 0 -136 -101 -141 -162c37 25 81 45 145 45c139 0 246 -77 246 -223v-2c0 -143 -115 -242 -267 -242zM333 120
c76 0 120 43 120 103v2c0 59 -46 102 -122 102s-120 -42 -120 -101v-2c0 -59 46 -104 122 -104z" />
    <glyph glyph-name="seven" unicode="7" horiz-adv-x="619" 
d="M84 0l313 567h-329v133h504v-116l-314 -584h-174z" />
    <glyph glyph-name="eight" unicode="8" horiz-adv-x="630" 
d="M315 -10c-155 0 -270 80 -270 202v2c0 85 39 135 113 169c-54 33 -89 78 -89 153v2c0 107 98 192 246 192s246 -84 246 -192v-2c0 -75 -35 -120 -89 -153c71 -37 113 -82 113 -165v-2c0 -130 -115 -206 -270 -206zM315 414c61 0 100 36 100 85v2c0 43 -37 82 -100 82
s-100 -38 -100 -81v-2c0 -49 39 -86 100 -86zM315 117c76 0 121 38 121 87v2c0 54 -51 86 -121 86s-121 -32 -121 -86v-2c0 -48 45 -87 121 -87z" />
    <glyph glyph-name="nine" unicode="9" horiz-adv-x="662" 
d="M306 128c106 0 136 99 142 159c-36 -30 -82 -48 -142 -48c-152 0 -250 84 -250 226v2c0 141 109 245 267 245c94 0 149 -23 202 -76c50 -50 83 -126 83 -264v-2c0 -227 -107 -382 -306 -382c-102 0 -171 34 -230 83l81 117c51 -41 94 -60 153 -60zM331 367
c76 0 120 44 120 104v2c0 62 -46 107 -123 107c-76 0 -119 -44 -119 -106v-2c0 -62 46 -105 122 -105z" />
    <glyph glyph-name="period" unicode="." horiz-adv-x="286" 
d="M62 0v160h162v-160h-162z" />
    <glyph glyph-name="comma" unicode="," horiz-adv-x="286" 
d="M39 -162l-13 63c69 7 103 42 98 99h-62v160h162v-135c0 -132 -66 -185 -185 -187z" />
    <glyph glyph-name="colon" unicode=":" horiz-adv-x="296" 
d="M67 376v160h162v-160h-162zM67 0v160h162v-160h-162z" />
    <glyph glyph-name="semicolon" unicode=";" horiz-adv-x="296" 
d="M67 376v160h162v-160h-162zM44 -162l-13 63c69 7 103 42 98 99h-62v160h162v-135c0 -132 -66 -185 -185 -187z" />
    <glyph glyph-name="ellipsis" unicode="&#x2026;" horiz-adv-x="840" 
d="M620 0v156h158v-156h-158zM341 0v156h158v-156h-158zM62 0v156h158v-156h-158z" />
    <glyph glyph-name="periodcentered" unicode="&#xb7;" horiz-adv-x="286" 
d="M62 230v160h162v-160h-162z" />
    <glyph glyph-name="bullet" unicode="&#x2022;" horiz-adv-x="500" 
d="M250 203c-82 0 -149 66 -149 148v2c0 82 67 148 149 148s149 -66 149 -148v-2c0 -82 -67 -148 -149 -148z" />
    <glyph glyph-name="ampersand" unicode="&#x26;" horiz-adv-x="696" 
d="M555 -14l-81 82c-57 -47 -124 -78 -205 -78c-134 0 -235 78 -235 202v2c0 89 48 152 136 192c-34 48 -49 92 -49 140v2c0 96 77 184 212 184c119 0 197 -78 197 -176v-2c0 -94 -60 -149 -147 -183l93 -93c23 36 46 77 68 120l113 -62c-27 -49 -57 -101 -92 -148l103 -103
zM303 432c61 23 93 49 93 93v2c0 40 -27 65 -66 65c-41 0 -68 -29 -68 -71v-2c0 -31 12 -54 41 -87zM287 116c35 0 69 15 101 40l-134 136c-46 -24 -65 -58 -65 -92v-2c0 -49 41 -82 98 -82z" />
    <glyph glyph-name="exclam" unicode="!" horiz-adv-x="324" 
d="M120 238l-47 442v20h178v-20l-47 -442h-84zM81 0v160h162v-160h-162z" />
    <glyph glyph-name="exclamdown" unicode="&#xa1;" horiz-adv-x="324" 
d="M81 540v160h162v-160h-162zM73 0v20l47 442h84l47 -442v-20h-178z" />
    <glyph glyph-name="question" unicode="?" horiz-adv-x="544" 
d="M197 238l-23 162l5 5c126 5 175 38 175 91v2c0 45 -34 71 -92 71c-56 0 -104 -23 -150 -69l-92 101c58 64 136 108 245 108c144 0 242 -74 242 -207v-2c0 -127 -88 -179 -197 -201l-11 -61h-102zM164 0v160h162v-160h-162z" />
    <glyph glyph-name="questiondown" unicode="&#xbf;" horiz-adv-x="544" 
d="M218 540v160h162v-160h-162zM279 -9c-144 0 -242 74 -242 207v2c0 127 88 179 197 201l11 61h102l23 -162l-5 -5c-126 -5 -175 -38 -175 -91v-2c0 -45 34 -71 92 -71c56 0 104 23 150 69l92 -101c-58 -64 -136 -108 -245 -108z" />
    <glyph glyph-name="quotedblleft" unicode="&#x201c;" horiz-adv-x="540" 
d="M311 383v135c0 132 66 185 185 187l13 -63c-69 -7 -103 -42 -98 -99h62v-160h-162zM57 383v135c0 132 66 185 185 187l13 -63c-69 -7 -103 -42 -98 -99h62v-160h-162z" />
    <glyph glyph-name="quotedblright" unicode="&#x201d;" horiz-adv-x="540" 
d="M298 378l-13 63c69 7 103 42 98 99h-62v160h162v-135c0 -132 -66 -185 -185 -187zM44 378l-13 63c69 7 103 42 98 99h-62v160h162v-135c0 -132 -66 -185 -185 -187z" />
    <glyph glyph-name="quoteleft" unicode="&#x2018;" horiz-adv-x="286" 
d="M57 383v135c0 132 66 185 185 187l13 -63c-69 -7 -103 -42 -98 -99h62v-160h-162z" />
    <glyph glyph-name="quoteright" unicode="&#x2019;" horiz-adv-x="286" 
d="M44 378l-13 63c69 7 103 42 98 99h-62v160h162v-135c0 -132 -66 -185 -185 -187z" />
    <glyph glyph-name="quotedblbase" unicode="&#x201e;" horiz-adv-x="540" 
d="M293 -162l-13 63c69 7 103 42 98 99h-62v160h162v-135c0 -132 -66 -185 -185 -187zM39 -162l-13 63c69 7 103 42 98 99h-62v160h162v-135c0 -132 -66 -185 -185 -187z" />
    <glyph glyph-name="quotesinglbase" unicode="&#x201a;" horiz-adv-x="286" 
d="M39 -162l-13 63c69 7 103 42 98 99h-62v160h162v-135c0 -132 -66 -185 -185 -187z" />
    <glyph glyph-name="guillemotleft" unicode="&#xab;" horiz-adv-x="645" 
d="M491 42l-178 222v8l178 222l106 -52l-120 -173l120 -173zM219 42l-178 222v8l178 222l106 -52l-120 -173l120 -173z" />
    <glyph glyph-name="guillemotright" unicode="&#xbb;" horiz-adv-x="645" 
d="M426 42l-106 52l120 173l-120 173l106 54l178 -222v-8zM154 42l-106 52l120 173l-120 173l106 54l178 -222v-8z" />
    <glyph glyph-name="guilsinglleft" unicode="&#x2039;" horiz-adv-x="373" 
d="M219 42l-178 222v8l178 222l106 -52l-120 -173l120 -173z" />
    <glyph glyph-name="guilsinglright" unicode="&#x203a;" horiz-adv-x="373" 
d="M154 42l-106 52l120 173l-120 173l106 54l178 -222v-8z" />
    <glyph glyph-name="hyphen" unicode="-" horiz-adv-x="408" 
d="M50 237v146h308v-146h-308z" />
    <glyph glyph-name="endash" unicode="&#x2013;" horiz-adv-x="528" 
d="M50 239v142h428v-142h-428z" />
    <glyph glyph-name="emdash" unicode="&#x2014;" horiz-adv-x="898" 
d="M50 239v142h798v-142h-798z" />
    <glyph glyph-name="underscore" unicode="_" 
d="M-2 -160v116h604v-116h-604z" />
    <glyph glyph-name="slash" unicode="/" horiz-adv-x="530" 
d="M-28 -128l443 926h129l-443 -926h-129z" />
    <glyph glyph-name="backslash" unicode="\" horiz-adv-x="530" 
d="M429 -128l-443 926h129l443 -926h-129z" />
    <glyph glyph-name="bar" unicode="|" horiz-adv-x="350" 
d="M115 -128v926h120v-926h-120z" />
    <glyph glyph-name="parenleft" unicode="(" horiz-adv-x="445" 
d="M336 -141c-184 100 -277 236 -277 428s93 328 277 428l67 -101c-135 -94 -193 -186 -193 -327s58 -233 193 -327z" />
    <glyph glyph-name="parenright" unicode=")" horiz-adv-x="445" 
d="M109 -141l-67 101c135 94 193 186 193 327s-58 233 -193 327l67 101c184 -100 277 -236 277 -428s-93 -328 -277 -428z" />
    <glyph glyph-name="bracketleft" unicode="[" horiz-adv-x="465" 
d="M83 -130v830h323v-119h-177v-592h177v-119h-323z" />
    <glyph glyph-name="bracketright" unicode="]" horiz-adv-x="465" 
d="M59 -130v119h177v592h-177v119h323v-830h-323z" />
    <glyph glyph-name="braceleft" unicode="{" horiz-adv-x="490" 
d="M416 -141c-183 32 -234 96 -234 198c0 15 3 52 3 69c0 78 -32 103 -110 103h-26v116h26c78 0 110 25 110 103c0 17 -3 54 -3 69c0 102 51 166 234 198l27 -101c-106 -30 -122 -58 -122 -119c0 -20 3 -53 3 -74c0 -73 -37 -112 -104 -134c67 -22 104 -61 104 -134
c0 -21 -3 -54 -3 -74c0 -61 16 -89 122 -119z" />
    <glyph glyph-name="braceright" unicode="}" horiz-adv-x="490" 
d="M74 -141l-27 101c106 30 122 58 122 119c0 20 -3 53 -3 74c0 73 37 112 104 134c-67 22 -104 61 -104 134c0 21 3 54 3 74c0 61 -16 89 -122 119l27 101c183 -32 234 -96 234 -198c0 -15 -3 -52 -3 -69c0 -78 32 -103 110 -103h26v-116h-26c-78 0 -110 -25 -110 -103
c0 -17 3 -54 3 -69c0 -102 -51 -166 -234 -198z" />
    <glyph glyph-name="at" unicode="@" horiz-adv-x="980" 
d="M499 -162c-256 0 -446 197 -446 436s193 438 438 438s436 -191 436 -396c0 -167 -89 -251 -199 -251c-81 0 -128 31 -153 60c-34 -31 -83 -60 -148 -60c-102 0 -183 74 -183 193c0 141 107 251 224 251c69 0 110 -30 138 -68l11 53l118 -19l-47 -269
c-2 -10 -3 -23 -3 -31c0 -36 27 -63 73 -63c71 0 127 71 127 204c0 185 -169 356 -394 356c-226 0 -396 -179 -396 -398c0 -220 168 -396 404 -396c99 0 170 23 245 67l20 -32c-77 -47 -161 -75 -265 -75zM462 168c28 0 55 12 76 33c26 26 43 66 43 111c0 57 -39 94 -93 94
c-29 0 -56 -12 -78 -34c-26 -26 -42 -63 -42 -107c0 -62 39 -97 94 -97z" />
    <glyph glyph-name="copyright" unicode="&#xa9;" horiz-adv-x="830" 
d="M414 -12c-203 0 -361 163 -361 360v2c0 197 160 362 363 362s361 -163 361 -360v-2c0 -197 -160 -362 -363 -362zM414 28c183 0 321 145 321 322v2c0 177 -137 320 -319 320c-183 0 -321 -145 -321 -322v-2c0 -177 137 -320 319 -320zM419 156c-113 0 -197 87 -197 197v2
c0 109 82 199 200 199c73 0 116 -24 152 -59l-55 -64c-29 26 -60 43 -97 43c-64 0 -110 -53 -110 -118v-2c0 -64 45 -118 110 -118c43 0 69 18 99 45l56 -56c-40 -43 -84 -69 -158 -69z" />
    <glyph glyph-name="published" unicode="&#x2117;" horiz-adv-x="830" 
d="M414 -12c-203 0 -361 163 -361 360v2c0 197 160 362 363 362s361 -163 361 -360v-2c0 -197 -160 -362 -363 -362zM414 28c183 0 321 145 321 322v2c0 177 -137 320 -319 320c-183 0 -321 -145 -321 -322v-2c0 -177 137 -320 319 -320zM282 164v385h158
c92 0 148 -54 148 -133v-2c0 -88 -70 -134 -156 -134h-64v-116h-86zM368 355h66c42 0 67 25 67 58v2c0 37 -27 58 -69 58h-64v-118z" />
    <glyph glyph-name="registered.alt" horiz-adv-x="830" 
d="M414 -12c-203 0 -361 163 -361 360v2c0 197 160 362 363 362s361 -163 361 -360v-2c0 -197 -160 -362 -363 -362zM414 28c183 0 321 145 321 322v2c0 177 -137 320 -319 320c-183 0 -321 -145 -321 -322v-2c0 -177 137 -320 319 -320zM266 168v385h171
c52 0 92 -15 119 -42c21 -21 32 -50 32 -84v-2c0 -62 -34 -101 -83 -119l94 -138h-99l-82 124h-67v-124h-85zM351 365h85c43 0 66 23 66 55v2c0 37 -26 56 -68 56h-83v-113z" />
    <glyph glyph-name="registered" unicode="&#xae;" horiz-adv-x="368" 
d="M184 360c-98 0 -174 79 -174 174v1c0 95 77 175 174 175c98 0 174 -79 174 -174v-1c0 -95 -77 -175 -174 -175zM184 379c87 0 154 71 154 156v1c0 85 -66 155 -154 155c-87 0 -154 -71 -154 -156v-1c0 -85 66 -155 154 -155zM108 446v184h88c45 0 77 -19 77 -62
c0 -29 -15 -49 -38 -58l44 -64h-60l-37 55h-22v-55h-52zM160 542h33c18 0 28 9 28 22c0 14 -10 22 -28 22h-33v-44z" />
    <glyph glyph-name="servicemark" unicode="&#x2120;" horiz-adv-x="703" 
d="M358 392v308h74l81 -130l81 130h72v-308h-66v208l-85 -135h-6l-85 135v-208h-66zM170 386c-50 0 -105 20 -142 51l37 46c31 -24 67 -42 109 -42c35 0 54 13 54 33s-15 29 -69 42c-66 16 -115 34 -115 93c0 57 44 97 117 97c49 0 94 -16 124 -42l-36 -48
c-27 19 -57 33 -90 33s-49 -14 -49 -32c0 -21 18 -30 70 -42c67 -15 114 -38 114 -93c0 -60 -50 -96 -124 -96z" />
    <glyph glyph-name="trademark" unicode="&#x2122;" horiz-adv-x="690" 
d="M345 392v308h74l81 -130l81 130h72v-308h-66v208l-85 -135h-6l-85 135v-208h-66zM118 392v246h-92v62h254v-62h-92v-246h-70z" />
    <glyph glyph-name="asterisk" unicode="*" horiz-adv-x="430" 
d="M174 372l16 120l-97 -74l-42 72l112 47l-112 47l42 72l97 -74l-16 120h82l-16 -120l97 74l42 -72l-112 -47l112 -47l-42 -72l-97 74l16 -120h-82z" />
    <glyph glyph-name="dagger" unicode="&#x2020;" horiz-adv-x="410" 
d="M163 238l10 270l-120 -10v83l119 -10l-13 129h92l-13 -129l119 10v-83l-120 10l10 -270h-84z" />
    <glyph glyph-name="daggerdbl" unicode="&#x2021;" horiz-adv-x="430" 
d="M169 0l13 129l-119 -10v83l119 -10l-9 158l9 158l-119 -10v83l119 -10l-13 129h92l-13 -129l119 10v-83l-119 10l9 -158l-9 -158l119 10v-83l-119 10l13 -129h-92z" />
    <glyph glyph-name="dollar" unicode="$" horiz-adv-x="646" 
d="M570 624l-67 -117c-40 27 -83 48 -124 59v-152c152 -41 217 -102 217 -214v-2c0 -112 -86 -184 -212 -197v-99h-104v101c-86 11 -170 45 -236 95l78 114c54 -41 104 -69 163 -81v159c-144 39 -215 93 -215 212v2c0 110 84 183 210 196v58h104v-61c71 -9 131 -35 186 -73z
M450 192c0 33 -17 54 -71 74v-140c47 7 71 28 71 64v2zM216 511c0 -32 14 -52 69 -72v136c-49 -6 -69 -30 -69 -62v-2z" />
    <glyph glyph-name="sterling" unicode="&#xa3;" horiz-adv-x="644" 
d="M60 0v101l76 25v141h-76v127h76v81c0 72 21 132 60 171c41 41 100 64 177 64c113 0 177 -50 225 -115l-117 -94c-34 44 -63 66 -106 66c-24 0 -42 -7 -57 -22c-16 -16 -26 -42 -26 -74v-77h228v-127h-228v-134h304v-133h-536z" />
    <glyph glyph-name="Euro" unicode="&#x20ac;" horiz-adv-x="720" 
d="M680 584l-116 -88c-38 51 -75 79 -133 79c-59 0 -102 -33 -127 -88h184v-101h-208c-1 -11 -1 -23 -1 -35c0 -11 0 -23 1 -33h208v-101h-186c26 -59 72 -92 135 -92c58 0 91 28 135 82l110 -81c-59 -83 -130 -138 -245 -138c-153 0 -257 92 -296 229h-92v101h75
c-1 10 -1 20 -1 31c0 12 0 25 1 37h-75v101h94c41 132 143 225 291 225c124 0 193 -54 246 -128z" />
    <glyph glyph-name="yen" unicode="&#xa5;" horiz-adv-x="686" 
d="M85 262v108h143l-214 330h177l153 -259l156 259h172l-215 -330h144v-108h-184v-62h184v-108h-184v-92h-148v92h-184v108h184v62h-184z" />
    <glyph glyph-name="cent" unicode="&#xa2;" horiz-adv-x="581" 
d="M451 706l-18 -88c41 -14 78 -38 109 -74l-90 -97c-16 16 -32 28 -49 37l-54 -276c41 6 75 26 107 56l86 -87c-52 -58 -117 -99 -214 -101l-16 -82h-104l19 98c-105 39 -180 140 -180 261v2c0 154 118 279 280 279h6l14 72h104zM194 355c0 -57 23 -105 64 -130l54 277
c-69 -5 -118 -69 -118 -145v-2z" />
    <glyph glyph-name="baht" unicode="&#xe3f;" horiz-adv-x="650" 
d="M311 780h96l-9 -81c118 -10 199 -73 199 -180v-1c0 -85 -49 -129 -104 -154c72 -33 120 -75 120 -168v-1c0 -130 -102 -195 -253 -195h-24l-10 -118h-96l10 118h-176v700h239zM361 298h-6l-15 -172h24c68 0 109 29 109 87c0 53 -37 85 -112 85zM201 408h82l15 166h-97
v-166zM458 492c0 47 -29 74 -80 80l-14 -164c58 4 94 30 94 84zM201 126h57l15 172h-72v-172z" />
    <glyph glyph-name="colonmonetary" unicode="&#x20a1;" horiz-adv-x="620" 
d="M448 780h69l-13 -104c31 -12 58 -29 81 -47l-54 -131c-15 13 -31 25 -48 36l-49 -397c29 12 54 32 81 57l74 -100c-50 -47 -100 -78 -168 -90l-15 -122h-69l14 118c-23 0 -46 3 -68 8l-15 -126h-69l18 150c-105 51 -177 161 -177 313v9c0 186 109 311 259 340l11 86h69
l-10 -80c24 0 47 -2 68 -6zM296 137c22 -8 47 -11 74 -11l54 438c-18 6 -38 10 -58 10c-6 0 -11 0 -16 -1zM180 341c0 -79 21 -134 58 -169l47 384c-63 -31 -105 -101 -105 -206v-9z" />
    <glyph glyph-name="florin" unicode="&#x192;" horiz-adv-x="536" 
d="M100 -5c-25 0 -41 1 -59 5v123c13 -2 26 -3 37 -3c42 0 62 17 70 61l28 163h-67v125h89l14 74c19 102 69 162 189 162c40 0 74 -4 99 -12v-126c-24 6 -47 10 -68 10c-44 0 -67 -21 -75 -68l-7 -40h115v-125h-137l-33 -187c-21 -118 -80 -162 -195 -162z" />
    <glyph glyph-name="naira" unicode="&#x20a6;" horiz-adv-x="840" 
d="M814 198h-103v-198h-151l-122 198h-164v-198h-145v198h-103v92h103v124h-103v92h103v194h162l118 -194h157v194h145v-194h103v-92h-103v-124h103v-92zM271 473v-187h118l-113 187h-5zM564 243h5v175h-111z" />
    <glyph glyph-name="peso" unicode="&#x20b1;" horiz-adv-x="763" 
d="M129 0v404h-103v87h103v209h256c150 0 247 -88 265 -209h96v-87h-96c-20 -136 -137 -214 -280 -214h-87v-190h-154zM371 319c69 0 113 37 126 90h-218v-90h92zM279 569v-83h216c-15 54 -60 83 -127 83h-89z" />
    <glyph glyph-name="R_p" horiz-adv-x="1210" 
d="M75 0v700h261c153 0 250 -81 250 -229v-4c0 -106 -53 -173 -130 -207l148 -260h-165l-128 230h-92v-230h-144zM685 -160v696h142v-74c31 45 74 84 145 84c107 0 205 -87 205 -270v-16c0 -182 -97 -270 -205 -270c-72 0 -115 39 -145 79v-229h-142zM930 114
c59 0 105 56 105 148v12c0 91 -46 148 -105 148c-58 0 -105 -57 -105 -148v-12c0 -91 47 -148 105 -148zM219 358h111c68 0 110 38 110 103v4c0 73 -45 103 -113 103h-108v-210z" />
    <glyph glyph-name="rupee" unicode="&#x20a8;" horiz-adv-x="1110" 
d="M75 0v700h261c153 0 250 -81 250 -229v-4c0 -106 -53 -173 -130 -207l148 -260h-165l-128 230h-92v-230h-144zM874 -10c-82 0 -158 25 -226 73l60 99c56 -38 114 -59 169 -59c39 0 65 17 65 42v2c0 26 -15 37 -103 66c-106 35 -166 73 -166 162v2c0 106 86 166 195 166
c63 0 132 -19 189 -55l-52 -104c-49 29 -96 46 -140 46c-39 0 -63 -17 -63 -39v-2c0 -26 18 -40 103 -68c108 -36 166 -74 166 -162v-2c0 -111 -89 -167 -197 -167zM219 358h111c68 0 110 38 110 103v4c0 73 -45 103 -113 103h-108v-210z" />
    <glyph glyph-name="won" unicode="&#x20a9;" horiz-adv-x="1120" 
d="M1050 700l-53 -204h92v-97h-118l-25 -99h143v-97h-169l-53 -205h-174l-54 205h-158l-54 -205h-174l-54 205h-168v97h143l-26 99h-117v97h92l-53 204h165l43 -204h145l53 206h172l52 -206h145l44 204h161zM557 523l-56 -228h118l-56 228h-6zM777 171h6l47 233h-110z
M341 171h6l57 233h-111z" />
    <glyph glyph-name="sheqel" unicode="&#x20aa;" horiz-adv-x="630" 
d="M231 139l-26 183h75l19 -125c8 -52 37 -74 89 -74h73v413h113v-536h-187c-94 0 -143 44 -156 139zM338 338c0 49 -26 75 -75 75h-94v-413h-113v536h231c79 0 126 -47 126 -126v-196h-75v124z" />
    <glyph glyph-name="numbersign" unicode="#" horiz-adv-x="700" 
d="M630 278v-128h-111l-25 -150h-132l25 150h-144l-26 -150h-132l25 150h-75v128h97l26 148h-88v128h110l25 146h132l-25 -146h145l25 146h132l-25 -146h76v-128h-98l-26 -148h89zM287 430l-26 -156h151l26 156h-151z" />
    <glyph glyph-name="paragraph" unicode="&#xb6;" horiz-adv-x="590" 
d="M352 0v230h-24c-168 0 -293 78 -293 233v2c0 147 112 235 276 235h195v-700h-154z" />
    <glyph glyph-name="section" unicode="&#xa7;" horiz-adv-x="632" 
d="M488 238c27 -21 42 -56 42 -91v-2c0 -94 -75 -155 -205 -155c-102 0 -177 34 -233 95l82 82c46 -42 92 -66 147 -66c45 0 66 15 66 36v2c0 23 -22 36 -110 55c-158 35 -222 74 -222 149v2c0 67 41 99 89 117c-29 23 -42 57 -42 91v2c0 95 77 155 205 155
c102 0 177 -34 233 -95l-82 -82c-46 42 -92 66 -147 66c-42 0 -66 -14 -66 -36v-2c0 -21 15 -34 110 -55c158 -35 222 -72 222 -149v-2c0 -66 -41 -99 -89 -117zM389 289c31 0 55 16 55 44v2c0 26 -32 41 -101 58c-52 13 -79 18 -100 18c-31 0 -55 -16 -55 -44v-2
c0 -26 32 -41 101 -58c52 -13 79 -18 100 -18z" />
    <glyph glyph-name="ordfeminine" unicode="&#xaa;" horiz-adv-x="390" 
d="M153 399c-56 0 -101 32 -101 90v2c0 64 49 94 119 94c29 0 51 -5 72 -12v5c0 34 -22 54 -64 54c-31 0 -54 -6 -81 -16l-21 63c33 15 64 24 114 24c46 0 79 -12 100 -33c22 -22 32 -55 32 -94v-171h-81v32c-20 -23 -48 -38 -89 -38zM49 277v66h278v-66h-278zM178 457
c39 0 66 22 66 52v15c-15 6 -33 11 -54 11c-35 0 -57 -14 -57 -40v-2c0 -22 18 -36 45 -36z" />
    <glyph glyph-name="ordmasculine" unicode="&#xba;" horiz-adv-x="390" 
d="M194 398c-88 0 -153 67 -153 152v2c0 85 67 153 155 153s153 -67 153 -152v-2c0 -85 -67 -153 -155 -153zM51 277v66h288v-66h-288zM196 470c44 0 71 37 71 80v2c0 43 -29 81 -73 81s-71 -37 -71 -80v-2c0 -43 29 -81 73 -81z" />
    <glyph glyph-name="degree" unicode="&#xb0;" horiz-adv-x="480" 
d="M240 368c-91 0 -173 77 -173 168v2c0 91 82 168 173 168s173 -77 173 -168v-2c0 -91 -82 -168 -173 -168zM240 443c53 0 92 43 92 93v2c0 50 -39 93 -92 93s-92 -43 -92 -93v-2c0 -50 39 -93 92 -93z" />
    <glyph glyph-name="percent" unicode="%" horiz-adv-x="860" 
d="M214 350c-101 0 -169 79 -169 177v2c0 99 69 179 171 179c101 0 169 -79 169 -177v-2c0 -98 -69 -179 -171 -179zM214 617c-42 0 -64 -40 -64 -86v-2c0 -47 26 -88 66 -88c42 0 64 41 64 86v2c0 47 -26 88 -66 88zM395 377l231 323h119l-280 -377l-231 -323h-119zM644 -8
c-101 0 -169 79 -169 177v2c0 99 69 179 171 179c101 0 169 -79 169 -177v-2c0 -98 -69 -179 -171 -179zM646 83c42 0 64 41 64 86v2c0 47 -26 88 -66 88c-42 0 -64 -40 -64 -86v-2c0 -47 26 -88 66 -88z" />
    <glyph glyph-name="perthousand" unicode="&#x2030;" horiz-adv-x="1240" 
d="M216 441c42 0 64 41 64 86v2c0 47 -26 88 -66 88c-42 0 -64 -40 -64 -86v-2c0 -47 26 -88 66 -88zM214 350c-101 0 -169 79 -169 177v2c0 99 69 179 171 179c101 0 169 -79 169 -177v-2c0 -98 -69 -179 -171 -179zM745 700l-280 -377l-231 -323h-119l280 377l231 323h119
zM646 83c42 0 64 41 64 86v2c0 47 -26 88 -66 88c-42 0 -64 -40 -64 -86v-2c0 -47 26 -88 66 -88zM644 -8c-101 0 -169 79 -169 177v2c0 99 69 179 171 179c101 0 169 -79 169 -177v-2c0 -98 -69 -179 -171 -179zM1026 83c42 0 64 41 64 86v2c0 47 -26 88 -66 88
c-42 0 -64 -40 -64 -86v-2c0 -47 26 -88 66 -88zM1024 -8c-101 0 -169 79 -169 177v2c0 99 69 179 171 179c101 0 169 -79 169 -177v-2c0 -98 -69 -179 -171 -179z" />
    <glyph glyph-name="quotedbl" unicode="&#x22;" horiz-adv-x="520" 
d="M293 381l18 319h168v-5l-109 -314h-77zM57 381l18 319h168v-5l-109 -314h-77z" />
    <glyph glyph-name="quotesingle" unicode="'" horiz-adv-x="286" 
d="M57 381l18 319h170v-5l-109 -314h-79z" />
    <glyph glyph-name="plus" unicode="+" horiz-adv-x="640" 
d="M249 103v180h-181v138h181v180h142v-180h181v-138h-181v-180h-142z" />
    <glyph glyph-name="minus" unicode="&#x2212;" horiz-adv-x="640" 
d="M572 282h-504v140h504v-140z" />
    <glyph glyph-name="divide" unicode="&#xf7;" horiz-adv-x="640" 
d="M242 495v144h156v-144h-156zM572 288h-504v128h504v-128zM242 65v144h156v-144h-156z" />
    <glyph glyph-name="equal" unicode="=" horiz-adv-x="640" 
d="M73 413v138h494v-138h-494zM73 153v138h494v-138h-494z" />
    <glyph glyph-name="multiply" unicode="&#xd7;" horiz-adv-x="640" 
d="M474 103l-155 159l-155 -159l-93 93l159 155l-159 155l95 95l155 -159l155 159l93 -93l-159 -155l159 -155z" />
    <glyph glyph-name="less" unicode="&#x3c;" horiz-adv-x="640" 
d="M552 71l-484 212v138l484 212v-141l-338 -139l338 -139v-143z" />
    <glyph glyph-name="greater" unicode="&#x3e;" horiz-adv-x="640" 
d="M88 71v141l338 139l-338 139v143l484 -212v-138z" />
    <glyph glyph-name="plusminus" unicode="&#xb1;" horiz-adv-x="640" 
d="M567 379l-180 1l1 -177h-136l1 177l-180 -1v132l180 -1l-1 177h136l-1 -177l180 1v-132zM567 0h-494v126h494v-126z" />
    <glyph glyph-name="onehalf" unicode="&#xbd;" horiz-adv-x="825" 
d="M230 310h-86v303l-75 -28l-25 72l122 48h64v-395zM487 0v75l133 108c47 38 67 59 67 90c0 29 -24 46 -53 46c-31 0 -58 -19 -85 -53l-62 51c39 52 79 83 152 83c84 0 139 -48 139 -119c0 -54 -23 -87 -82 -134l-90 -71h174v-76h-293zM111 0l254 367l221 333h83l-254 -367
l-221 -333h-83z" />
    <glyph glyph-name="onehalf.alt" horiz-adv-x="900" 
d="M349 310h-285v76h105v227l-90 -34l-25 72l137 54h64v-319h94v-76zM562 0v75l133 108c47 38 67 59 67 90c0 29 -24 46 -53 46c-31 0 -58 -19 -85 -53l-62 51c39 52 79 83 152 83c84 0 139 -48 139 -119c0 -54 -23 -87 -82 -134l-90 -71h174v-76h-293zM191 0l254 367
l221 333h83l-254 -367l-221 -333h-83z" />
    <glyph glyph-name="onethird" unicode="&#x2153;" horiz-adv-x="825" 
d="M230 310h-86v303l-75 -28l-25 72l122 48h64v-395zM631 -10c-69 0 -116 25 -156 60l51 65c30 -26 68 -46 106 -46c31 0 59 19 59 48c0 32 -29 48 -72 48h-47l-14 55l104 92h-160v78h270v-68l-111 -94c66 -5 118 -39 118 -108c0 -77 -56 -130 -148 -130zM101 0l254 367
l221 333h83l-254 -367l-221 -333h-83z" />
    <glyph glyph-name="onethird.alt" horiz-adv-x="900" 
d="M349 310h-285v76h105v227l-90 -34l-25 72l137 54h64v-319h94v-76zM706 -10c-69 0 -116 25 -156 60l51 65c30 -26 68 -46 106 -46c31 0 59 19 59 48c0 32 -29 48 -72 48h-47l-14 55l104 92h-160v78h270v-68l-111 -94c66 -5 118 -39 118 -108c0 -77 -56 -130 -148 -130z
M181 0l254 367l221 333h83l-254 -367l-221 -333h-83z" />
    <glyph glyph-name="twothirds" unicode="&#x2154;" horiz-adv-x="900" 
d="M42 310v75l133 108c47 38 67 59 67 90c0 29 -24 46 -53 46c-31 0 -58 -19 -85 -53l-62 51c39 52 79 83 152 83c84 0 139 -48 139 -119c0 -54 -23 -87 -82 -134l-90 -71h174v-76h-293zM706 -10c-69 0 -116 25 -156 60l51 65c30 -26 68 -46 106 -46c31 0 59 19 59 48
c0 32 -29 48 -72 48h-47l-14 55l104 92h-160v78h270v-68l-111 -94c66 -5 118 -39 118 -108c0 -77 -56 -130 -148 -130zM171 0l254 367l221 333h83l-254 -367l-221 -333h-83z" />
    <glyph glyph-name="onequarter" unicode="&#xbc;" horiz-adv-x="825" 
d="M739 80v-82h-80v82h-188l-8 83l188 231h88v-245h52v-69h-52zM121 0l254 367l221 333h83l-254 -367l-221 -333h-83zM230 310h-86v303l-75 -28l-25 72l122 48h64v-395zM660 148v152l-122 -152h122z" />
    <glyph glyph-name="onequarter.alt" horiz-adv-x="900" 
d="M814 80v-82h-80v82h-188l-8 83l188 231h88v-245h52v-69h-52zM349 310h-285v76h105v227l-90 -34l-25 72l137 54h64v-319h94v-76zM196 0l254 367l221 333h83l-254 -367l-221 -333h-83zM735 148v152l-122 -152h122z" />
    <glyph glyph-name="threequarters" unicode="&#xbe;" horiz-adv-x="900" 
d="M814 80v-82h-80v82h-188l-8 83l188 231h88v-245h52v-69h-52zM196 300c-69 0 -116 25 -156 60l51 65c30 -26 68 -46 106 -46c31 0 59 19 59 48c0 32 -29 48 -72 48h-47l-14 55l104 92h-160v78h270v-68l-111 -94c66 -5 118 -39 118 -108c0 -77 -56 -130 -148 -130zM191 0
l254 367l221 333h83l-254 -367l-221 -333h-83zM735 148v152l-122 -152h122z" />
    <glyph glyph-name="onefifth" unicode="&#x2155;" horiz-adv-x="825" 
d="M230 310h-86v303l-75 -28l-25 72l122 48h64v-395zM630 -10c-64 0 -111 23 -154 56l51 67c35 -27 68 -42 105 -42c38 0 66 20 66 53c0 32 -27 52 -69 52c-27 0 -55 -6 -72 -14l-55 33l16 195h248v-79h-176l-6 -70c15 5 42 8 64 8c77 0 138 -40 138 -121
c0 -84 -61 -138 -156 -138zM106 0l254 367l221 333h83l-254 -367l-221 -333h-83z" />
    <glyph glyph-name="onefifth.alt" horiz-adv-x="900" 
d="M349 310h-285v76h105v227l-90 -34l-25 72l137 54h64v-319h94v-76zM705 -10c-64 0 -111 23 -154 56l51 67c35 -27 68 -42 105 -42c38 0 66 20 66 53c0 32 -27 52 -69 52c-27 0 -55 -6 -72 -14l-55 33l16 195h248v-79h-176l-6 -70c15 5 42 8 64 8c77 0 138 -40 138 -121
c0 -84 -61 -138 -156 -138zM186 0l254 367l221 333h83l-254 -367l-221 -333h-83z" />
    <glyph glyph-name="twofifths" unicode="&#x2156;" horiz-adv-x="900" 
d="M42 310v75l133 108c47 38 67 59 67 90c0 29 -24 46 -53 46c-31 0 -58 -19 -85 -53l-62 51c39 52 79 83 152 83c84 0 139 -48 139 -119c0 -54 -23 -87 -82 -134l-90 -71h174v-76h-293zM705 -10c-64 0 -111 23 -154 56l51 67c35 -27 68 -42 105 -42c38 0 66 20 66 53
c0 32 -27 52 -69 52c-27 0 -55 -6 -72 -14l-55 33l16 195h248v-79h-176l-6 -70c15 5 42 8 64 8c77 0 138 -40 138 -121c0 -84 -61 -138 -156 -138zM181 0l254 367l221 333h83l-254 -367l-221 -333h-83z" />
    <glyph glyph-name="threefifths" unicode="&#x2157;" horiz-adv-x="900" 
d="M186 300c-69 0 -116 25 -156 60l51 65c30 -26 68 -46 106 -46c31 0 59 19 59 48c0 32 -29 48 -72 48h-47l-14 55l104 92h-160v78h270v-68l-111 -94c66 -5 118 -39 118 -108c0 -77 -56 -130 -148 -130zM705 -10c-64 0 -111 23 -154 56l51 67c35 -27 68 -42 105 -42
c38 0 66 20 66 53c0 32 -27 52 -69 52c-27 0 -55 -6 -72 -14l-55 33l16 195h248v-79h-176l-6 -70c15 5 42 8 64 8c77 0 138 -40 138 -121c0 -84 -61 -138 -156 -138zM166 0l254 367l221 333h83l-254 -367l-221 -333h-83z" />
    <glyph glyph-name="fourfifths" unicode="&#x2158;" horiz-adv-x="900" 
d="M304 390v-82h-80v82h-188l-8 83l188 231h88v-245h52v-69h-52zM705 -10c-64 0 -111 23 -154 56l51 67c35 -27 68 -42 105 -42c38 0 66 20 66 53c0 32 -27 52 -69 52c-27 0 -55 -6 -72 -14l-55 33l16 195h248v-79h-176l-6 -70c15 5 42 8 64 8c77 0 138 -40 138 -121
c0 -84 -61 -138 -156 -138zM181 0l254 367l221 333h83l-254 -367l-221 -333h-83zM225 458v152l-122 -152h122z" />
    <glyph glyph-name="onesixth" unicode="&#x2159;" horiz-adv-x="825" 
d="M637 -10c-44 0 -82 16 -106 40c-30 30 -52 72 -52 153v2c0 131 58 215 174 215c53 0 85 -14 117 -38l-41 -70c-23 18 -47 29 -78 29c-44 0 -75 -35 -80 -88c22 13 45 21 82 21c70 0 131 -41 131 -125s-62 -139 -147 -139zM111 0l254 367l221 333h83l-254 -367l-221 -333
h-83zM230 310h-86v303l-75 -28l-25 72l122 48h64v-395zM635 64c37 0 65 24 65 60c0 38 -26 61 -65 61c-41 0 -66 -21 -66 -61c0 -36 29 -60 66 -60z" />
    <glyph glyph-name="onesixth.alt" horiz-adv-x="900" 
d="M712 -10c-44 0 -82 16 -106 40c-30 30 -52 72 -52 153v2c0 131 58 215 174 215c53 0 85 -14 117 -38l-41 -70c-23 18 -47 29 -78 29c-44 0 -75 -35 -80 -88c22 13 45 21 82 21c70 0 131 -41 131 -125s-62 -139 -147 -139zM349 310h-285v76h105v227l-90 -34l-25 72l137 54
h64v-319h94v-76zM186 0l254 367l221 333h83l-254 -367l-221 -333h-83zM710 64c37 0 65 24 65 60c0 38 -26 61 -65 61c-41 0 -66 -21 -66 -61c0 -36 29 -60 66 -60z" />
    <glyph glyph-name="fivesixths" unicode="&#x215a;" horiz-adv-x="900" 
d="M712 -10c-44 0 -82 16 -106 40c-30 30 -52 72 -52 153v2c0 131 58 215 174 215c53 0 85 -14 117 -38l-41 -70c-23 18 -47 29 -78 29c-44 0 -75 -35 -80 -88c22 13 45 21 82 21c70 0 131 -41 131 -125s-62 -139 -147 -139zM185 300c-64 0 -111 23 -154 56l51 67
c35 -27 68 -42 105 -42c38 0 66 20 66 53c0 32 -27 52 -69 52c-27 0 -55 -6 -72 -14l-55 33l16 195h248v-79h-176l-6 -70c15 5 42 8 64 8c77 0 138 -40 138 -121c0 -84 -61 -138 -156 -138zM171 0l254 367l221 333h83l-254 -367l-221 -333h-83zM710 64c37 0 65 24 65 60
c0 38 -26 61 -65 61c-41 0 -66 -21 -66 -61c0 -36 29 -60 66 -60z" />
    <glyph glyph-name="oneeighth" unicode="&#x215b;" horiz-adv-x="825" 
d="M230 310h-86v303l-75 -28l-25 72l122 48h64v-395zM635 -10c-89 0 -151 45 -151 117c0 47 22 77 62 96c-31 18 -52 45 -52 88c0 61 54 109 141 109c86 0 140 -48 140 -109c0 -44 -22 -70 -52 -88c38 -20 62 -48 62 -95c0 -74 -63 -118 -150 -118zM635 331
c-36 0 -60 -21 -60 -49c0 -31 25 -51 60 -51c33 0 59 19 59 51c0 28 -25 49 -59 49zM635 165c-39 0 -69 -19 -69 -53c0 -32 26 -54 69 -54c41 0 67 21 67 54c0 34 -29 53 -67 53zM106 0l254 367l221 333h83l-254 -367l-221 -333h-83z" />
    <glyph glyph-name="oneeighth.alt" horiz-adv-x="900" 
d="M349 310h-285v76h105v227l-90 -34l-25 72l137 54h64v-319h94v-76zM710 -10c-89 0 -151 45 -151 117c0 47 22 77 62 96c-31 18 -52 45 -52 88c0 61 54 109 141 109c86 0 140 -48 140 -109c0 -44 -22 -70 -52 -88c38 -20 62 -48 62 -95c0 -74 -63 -118 -150 -118zM710 331
c-36 0 -60 -21 -60 -49c0 -31 25 -51 60 -51c33 0 59 19 59 51c0 28 -25 49 -59 49zM710 165c-39 0 -69 -19 -69 -53c0 -32 26 -54 69 -54c41 0 67 21 67 54c0 34 -29 53 -67 53zM186 0l254 367l221 333h83l-254 -367l-221 -333h-83z" />
    <glyph glyph-name="threeeighths" unicode="&#x215c;" horiz-adv-x="900" 
d="M186 300c-69 0 -116 25 -156 60l51 65c30 -26 68 -46 106 -46c31 0 59 19 59 48c0 32 -29 48 -72 48h-47l-14 55l104 92h-160v78h270v-68l-111 -94c66 -5 118 -39 118 -108c0 -77 -56 -130 -148 -130zM710 -10c-89 0 -151 45 -151 117c0 47 22 77 62 96
c-31 18 -52 45 -52 88c0 61 54 109 141 109c86 0 140 -48 140 -109c0 -44 -22 -70 -52 -88c38 -20 62 -48 62 -95c0 -74 -63 -118 -150 -118zM710 331c-36 0 -60 -21 -60 -49c0 -31 25 -51 60 -51c33 0 59 19 59 51c0 28 -25 49 -59 49zM710 165c-39 0 -69 -19 -69 -53
c0 -32 26 -54 69 -54c41 0 67 21 67 54c0 34 -29 53 -67 53zM171 0l254 367l221 333h83l-254 -367l-221 -333h-83z" />
    <glyph glyph-name="fiveeighths" unicode="&#x215d;" horiz-adv-x="900" 
d="M185 300c-64 0 -111 23 -154 56l51 67c35 -27 68 -42 105 -42c38 0 66 20 66 53c0 32 -27 52 -69 52c-27 0 -55 -6 -72 -14l-55 33l16 195h248v-79h-176l-6 -70c15 5 42 8 64 8c77 0 138 -40 138 -121c0 -84 -61 -138 -156 -138zM710 -10c-89 0 -151 45 -151 117
c0 47 22 77 62 96c-31 18 -52 45 -52 88c0 61 54 109 141 109c86 0 140 -48 140 -109c0 -44 -22 -70 -52 -88c38 -20 62 -48 62 -95c0 -74 -63 -118 -150 -118zM710 331c-36 0 -60 -21 -60 -49c0 -31 25 -51 60 -51c33 0 59 19 59 51c0 28 -25 49 -59 49zM710 165
c-39 0 -69 -19 -69 -53c0 -32 26 -54 69 -54c41 0 67 21 67 54c0 34 -29 53 -67 53zM171 0l254 367l221 333h83l-254 -367l-221 -333h-83z" />
    <glyph glyph-name="seveneighths" unicode="&#x215e;" horiz-adv-x="900" 
d="M175 308h-98l166 311h-180v81h281v-68zM710 -10c-89 0 -151 45 -151 117c0 47 22 77 62 96c-31 18 -52 45 -52 88c0 61 54 109 141 109c86 0 140 -48 140 -109c0 -44 -22 -70 -52 -88c38 -20 62 -48 62 -95c0 -74 -63 -118 -150 -118zM710 331c-36 0 -60 -21 -60 -49
c0 -31 25 -51 60 -51c33 0 59 19 59 51c0 28 -25 49 -59 49zM710 165c-39 0 -69 -19 -69 -53c0 -32 26 -54 69 -54c41 0 67 21 67 54c0 34 -29 53 -67 53zM141 0l254 367l221 333h83l-254 -367l-221 -333h-83z" />
    <glyph glyph-name="zero.sup" unicode="&#x2070;" horiz-adv-x="400" 
d="M199 410c-92 0 -164 77 -164 202v5c0 126 73 203 165 203c91 0 165 -77 165 -202v-5c0 -126 -75 -203 -166 -203zM199 738c-40 0 -73 -37 -73 -119v-8c0 -81 33 -119 74 -119c40 0 74 37 74 119v8c0 81 -35 119 -75 119z" />
    <glyph glyph-name="one.sup" unicode="&#xb9;" horiz-adv-x="325" 
d="M230 420h-86v303l-75 -28l-25 72l122 48h64v-395z" />
    <glyph glyph-name="one.sup_alt" horiz-adv-x="400" 
d="M354 420h-285v76h105v227l-90 -34l-25 72l137 54h64v-319h94v-76z" />
    <glyph glyph-name="two.sup" unicode="&#xb2;" horiz-adv-x="400" 
d="M52 420v75l133 108c47 38 67 59 67 90c0 29 -24 46 -53 46c-31 0 -58 -19 -85 -53l-62 51c39 52 79 83 152 83c84 0 139 -48 139 -119c0 -54 -23 -87 -82 -134l-90 -71h174v-76h-293z" />
    <glyph glyph-name="three.sup" unicode="&#xb3;" horiz-adv-x="400" 
d="M196 410c-69 0 -116 25 -156 60l51 65c30 -26 68 -46 106 -46c31 0 59 19 59 48c0 32 -29 48 -72 48h-47l-14 55l104 92h-160v78h270v-68l-111 -94c66 -5 118 -39 118 -108c0 -77 -56 -130 -148 -130z" />
    <glyph glyph-name="four.sup" unicode="&#x2074;" horiz-adv-x="400" 
d="M314 500v-82h-80v82h-188l-8 83l188 231h88v-245h52v-69h-52zM235 568v152l-122 -152h122z" />
    <glyph glyph-name="five.sup" unicode="&#x2075;" horiz-adv-x="400" 
d="M195 410c-64 0 -111 23 -154 56l51 67c35 -27 68 -42 105 -42c38 0 66 20 66 53c0 32 -27 52 -69 52c-27 0 -55 -6 -72 -14l-55 33l16 195h248v-79h-176l-6 -70c15 5 42 8 64 8c77 0 138 -40 138 -121c0 -84 -61 -138 -156 -138z" />
    <glyph glyph-name="six.sup" unicode="&#x2076;" horiz-adv-x="400" 
d="M202 410c-44 0 -82 16 -106 40c-30 30 -52 72 -52 153v2c0 131 58 215 174 215c53 0 85 -14 117 -38l-41 -70c-23 18 -47 29 -78 29c-44 0 -75 -35 -80 -88c22 13 45 21 82 21c70 0 131 -41 131 -125s-62 -139 -147 -139zM200 484c37 0 65 24 65 60c0 38 -26 61 -65 61
c-41 0 -66 -21 -66 -61c0 -36 29 -60 66 -60z" />
    <glyph glyph-name="seven.sup" unicode="&#x2077;" horiz-adv-x="400" 
d="M175 418h-98l166 311h-180v81h281v-68z" />
    <glyph glyph-name="eight.sup" unicode="&#x2078;" horiz-adv-x="400" 
d="M200 410c-89 0 -151 45 -151 117c0 47 22 77 62 96c-31 18 -52 45 -52 88c0 61 54 109 141 109c86 0 140 -48 140 -109c0 -44 -22 -70 -52 -88c38 -20 62 -48 62 -95c0 -74 -63 -118 -150 -118zM200 751c-36 0 -60 -21 -60 -49c0 -31 25 -51 60 -51c33 0 59 19 59 51
c0 28 -25 49 -59 49zM200 585c-39 0 -69 -19 -69 -53c0 -32 26 -54 69 -54c41 0 67 21 67 54c0 34 -29 53 -67 53z" />
    <glyph glyph-name="nine.sup" unicode="&#x2079;" horiz-adv-x="400" 
d="M198 820c44 0 82 -16 106 -40c30 -30 52 -72 52 -153v-2c0 -131 -58 -215 -174 -215c-53 0 -92 17 -124 41l41 70c23 -18 54 -32 85 -32c43 0 74 33 79 84c-22 -13 -42 -21 -79 -21c-70 0 -133 42 -133 127c0 83 62 141 147 141zM200 621c41 0 66 22 66 63
c0 37 -29 62 -66 62s-65 -25 -65 -62c0 -39 26 -63 65 -63z" />
    <glyph glyph-name="zero.inf" unicode="&#x2080;" horiz-adv-x="400" 
d="M199 -142c-92 0 -164 77 -164 202v5c0 126 73 203 165 203c91 0 165 -77 165 -202v-5c0 -126 -75 -203 -166 -203zM199 186c-40 0 -73 -37 -73 -119v-8c0 -81 33 -119 74 -119c40 0 74 37 74 119v8c0 81 -35 119 -75 119z" />
    <glyph glyph-name="one.inf" unicode="&#x2081;" horiz-adv-x="325" 
d="M230 -132h-86v303l-75 -28l-25 72l122 48h64v-395z" />
    <glyph glyph-name="one.inf_alt" horiz-adv-x="400" 
d="M354 -132h-285v76h105v227l-90 -34l-25 72l137 54h64v-319h94v-76z" />
    <glyph glyph-name="two.inf" unicode="&#x2082;" horiz-adv-x="400" 
d="M52 -132v75l133 108c47 38 67 59 67 90c0 29 -24 46 -53 46c-31 0 -58 -19 -85 -53l-62 51c39 52 79 83 152 83c84 0 139 -48 139 -119c0 -54 -23 -87 -82 -134l-90 -71h174v-76h-293z" />
    <glyph glyph-name="three.inf" unicode="&#x2083;" horiz-adv-x="400" 
d="M196 -142c-69 0 -116 25 -156 60l51 65c30 -26 68 -46 106 -46c31 0 59 19 59 48c0 32 -29 48 -72 48h-47l-14 55l104 92h-160v78h270v-68l-111 -94c66 -5 118 -39 118 -108c0 -77 -56 -130 -148 -130z" />
    <glyph glyph-name="four.inf" unicode="&#x2084;" horiz-adv-x="400" 
d="M314 -52v-82h-80v82h-188l-8 83l188 231h88v-245h52v-69h-52zM235 16v152l-122 -152h122z" />
    <glyph glyph-name="five.inf" unicode="&#x2085;" horiz-adv-x="400" 
d="M195 -142c-64 0 -111 23 -154 56l51 67c35 -27 68 -42 105 -42c38 0 66 20 66 53c0 32 -27 52 -69 52c-27 0 -55 -6 -72 -14l-55 33l16 195h248v-79h-176l-6 -70c15 5 42 8 64 8c77 0 138 -40 138 -121c0 -84 -61 -138 -156 -138z" />
    <glyph glyph-name="six.inf" unicode="&#x2086;" horiz-adv-x="400" 
d="M202 -142c-44 0 -82 16 -106 40c-30 30 -52 72 -52 153v2c0 131 58 215 174 215c53 0 85 -14 117 -38l-41 -70c-23 18 -47 29 -78 29c-44 0 -75 -35 -80 -88c22 13 45 21 82 21c70 0 131 -41 131 -125s-62 -139 -147 -139zM200 -68c37 0 65 24 65 60c0 38 -26 61 -65 61
c-41 0 -66 -21 -66 -61c0 -36 29 -60 66 -60z" />
    <glyph glyph-name="seven.inf" unicode="&#x2087;" horiz-adv-x="400" 
d="M175 -134h-98l166 311h-180v81h281v-68z" />
    <glyph glyph-name="eight.inf" unicode="&#x2088;" horiz-adv-x="400" 
d="M200 -142c-89 0 -151 45 -151 117c0 47 22 77 62 96c-31 18 -52 45 -52 88c0 61 54 109 141 109c86 0 140 -48 140 -109c0 -44 -22 -70 -52 -88c38 -20 62 -48 62 -95c0 -74 -63 -118 -150 -118zM200 199c-36 0 -60 -21 -60 -49c0 -31 25 -51 60 -51c33 0 59 19 59 51
c0 28 -25 49 -59 49zM200 33c-39 0 -69 -19 -69 -53c0 -32 26 -54 69 -54c41 0 67 21 67 54c0 34 -29 53 -67 53z" />
    <glyph glyph-name="nine.inf" unicode="&#x2089;" horiz-adv-x="400" 
d="M198 268c44 0 82 -16 106 -40c30 -30 52 -72 52 -153v-2c0 -131 -58 -215 -174 -215c-53 0 -92 17 -124 41l41 70c23 -18 54 -32 85 -32c43 0 74 33 79 84c-22 -13 -42 -21 -79 -21c-70 0 -133 42 -133 127c0 83 62 141 147 141zM200 69c41 0 66 22 66 63
c0 37 -29 62 -66 62s-65 -25 -65 -62c0 -39 26 -63 65 -63z" />
    <glyph glyph-name="zero.tab" 
d="M299 -11c-158 0 -259 135 -259 352v16c0 218 102 354 260 354c157 0 260 -135 260 -352v-16c0 -218 -104 -354 -261 -354zM299 581c-68 0 -112 -69 -112 -223v-15c0 -153 45 -224 113 -224s113 70 113 223v15c0 153 -46 224 -114 224z" />
    <glyph glyph-name="one.tab" 
d="M562 0h-490v124h181v425l-159 -59l-36 125l239 90h102v-581h163v-124z" />
    <glyph glyph-name="two.tab" 
d="M546 0h-499v120l224 198c82 73 115 111 115 167c0 57 -39 88 -95 88c-54 0 -93 -29 -144 -93l-101 90c67 91 134 140 255 140c147 0 239 -84 239 -212v-2c0 -100 -50 -157 -125 -223l-162 -141h293v-132z" />
    <glyph glyph-name="three.tab" 
d="M293 -12c-117 0 -198 41 -264 105l94 111c52 -48 102 -79 172 -79c57 0 103 33 103 86v2c0 58 -49 87 -136 87h-67l-26 94l179 175h-281v131h470v-118l-186 -174c104 -12 197 -61 197 -188v-2c0 -132 -99 -230 -255 -230z" />
    <glyph glyph-name="three.tab_alt" 
d="M299 -12c-107 0 -198 44 -263 114l97 100c46 -48 99 -79 172 -79c65 0 103 34 103 87c0 55 -49 82 -132 82h-73v124h83c71 0 109 34 109 84c0 45 -38 77 -98 77c-68 0 -108 -32 -152 -80l-98 91c55 70 132 124 252 124c152 0 247 -74 247 -195c0 -77 -45 -127 -100 -156
c64 -28 111 -70 111 -163c0 -127 -103 -210 -258 -210z" />
    <glyph glyph-name="four.tab" 
d="M355 0v146h-308l-25 140l301 418h171v-439h85v-119h-85v-146h-139zM357 263v283l-202 -283h202z" />
    <glyph glyph-name="five.tab" 
d="M286 -12c-110 0 -188 40 -255 96l84 113c57 -45 110 -75 174 -75c67 0 117 33 117 98v3c0 58 -45 95 -126 95c-51 0 -89 -12 -120 -25l-89 57l23 350h428v-134h-304l-9 -131c29 7 58 11 97 11c131 0 248 -63 248 -218v-2c0 -144 -111 -238 -268 -238z" />
    <glyph glyph-name="six.tab" 
d="M335 454c118 0 220 -75 220 -220v-4c0 -144 -107 -242 -248 -242c-80 0 -139 28 -177 66c-52 52 -83 123 -83 273v4c0 230 92 380 286 380c81 0 146 -24 196 -66l-67 -119c-42 31 -79 50 -131 50c-102 0 -129 -98 -134 -164c36 26 81 42 138 42zM301 114
c64 0 108 45 108 109c0 66 -42 109 -108 109s-108 -43 -108 -109c0 -64 44 -109 108 -109z" />
    <glyph glyph-name="seven.tab" 
d="M384 564h-322v136h493v-118l-298 -582h-170z" />
    <glyph glyph-name="eight.tab" 
d="M300 -10c-148 0 -256 80 -256 202v3c0 85 37 136 107 169c-53 33 -89 79 -89 153v2c0 107 97 191 238 191c140 0 237 -84 237 -191v-2c0 -74 -36 -120 -89 -153c67 -35 107 -82 107 -166v-2c0 -130 -108 -206 -255 -206zM300 112c70 0 110 38 110 92v2
c0 57 -46 90 -110 90c-65 0 -111 -33 -111 -90v-2c0 -54 40 -92 111 -92zM300 413c56 0 95 36 95 88v2c0 47 -37 85 -95 85c-59 0 -96 -37 -96 -84v-3c0 -50 39 -88 96 -88z" />
    <glyph glyph-name="nine.tab" 
d="M265 240c-118 0 -220 76 -220 223v4c0 146 107 245 248 245c80 0 139 -28 177 -66c52 -52 83 -123 83 -273v-4c0 -230 -92 -380 -286 -380c-86 0 -156 28 -206 70l67 119c46 -33 89 -54 141 -54c98 0 127 91 133 157c-36 -26 -81 -41 -137 -41zM299 586
c-64 0 -108 -46 -108 -112c0 -68 42 -112 108 -112s108 44 108 112c0 66 -44 112 -108 112z" />
    <glyph glyph-name="period.tab" horiz-adv-x="300" 
d="M67 0v164h166v-164h-166z" />
    <glyph glyph-name="comma.tab" horiz-adv-x="300" 
d="M46 -162l-13 63c69 7 103 42 98 99h-64v164h166v-139c0 -132 -68 -185 -187 -187z" />
    <glyph glyph-name="colon.tab" horiz-adv-x="300" 
d="M69 376v160h162v-160h-162zM69 0v160h162v-160h-162z" />
    <glyph glyph-name="semicolon.tab" horiz-adv-x="300" 
d="M69 376v160h162v-160h-162zM46 -162l-13 63c69 7 103 42 98 99h-62v160h162v-135c0 -132 -66 -185 -185 -187z" />
    <glyph glyph-name="twodotleader.tab" 
d="M371 0v156h158v-156h-158zM71 0v156h158v-156h-158z" />
    <glyph glyph-name="periodcentered.tab" horiz-adv-x="300" 
d="M67 228v164h166v-164h-166z" />
    <glyph glyph-name="slash.tab" 
d="M599 798l-483 -926h-129l483 926h129z" />
    <glyph glyph-name="bar.tab" horiz-adv-x="300" 
d="M90 -128v926h120v-926h-120z" />
    <glyph glyph-name="underscore.tab" 
d="M-2 -160v116h604v-116h-604z" />
    <glyph glyph-name="dollar.tab" 
d="M413 780l-11 -89c53 -11 101 -32 142 -59l-56 -111c-33 21 -69 39 -106 51l-20 -166c128 -39 193 -101 193 -200c0 -131 -99 -205 -237 -208l-15 -116h-99l16 126c-69 15 -133 45 -187 83l63 109c44 -33 93 -60 143 -74l21 173c-131 39 -194 94 -194 197
c0 128 99 205 238 206l10 78h99zM423 195c0 33 -18 58 -77 79l-19 -159c62 2 96 29 96 80zM198 508c0 -32 17 -56 78 -78l19 156c-66 -1 -97 -32 -97 -78z" />
    <glyph glyph-name="sterling.tab" 
d="M125 394v78c0 76 18 131 64 177c39 39 94 61 168 61c99 0 161 -44 203 -99l-100 -98c-31 38 -60 57 -100 57c-26 0 -44 -8 -59 -23c-16 -16 -25 -40 -25 -76v-77h209v-124h-209v-140h281v-130h-504v98l72 25v147h-71v124h71z" />
    <glyph glyph-name="Euro.tab" 
d="M29 387v97h82c36 139 133 227 270 227c89 0 151 -36 197 -88l-85 -102c-32 36 -68 60 -114 60c-54 0 -98 -32 -120 -97h161v-97h-177c-1 -11 -1 -22 -1 -33v-6c0 -11 0 -21 1 -31h177v-97h-163c21 -67 66 -101 120 -101c49 0 82 23 119 63l86 -93
c-50 -58 -117 -100 -211 -100c-132 0 -228 86 -262 231h-80v97h68v35c0 11 0 23 1 35h-69z" />
    <glyph glyph-name="yen.tab" 
d="M75 190h154v73h-154v98h130l-199 339h163l133 -252l133 252h159l-200 -339h131v-98h-153v-73h153v-98h-153v-92h-143v92h-154v98z" />
    <glyph glyph-name="cent.tab" 
d="M460 706l-19 -96c44 -15 77 -41 107 -74l-81 -90c-18 19 -35 33 -54 43l-56 -284c43 5 78 28 112 60l79 -80c-51 -57 -120 -98 -209 -100l-18 -91h-104l21 106c-103 34 -178 126 -178 249v2c0 156 115 274 275 274h5l16 81h104zM195 347c0 -62 27 -106 70 -128l57 286
c-72 -6 -127 -63 -127 -156v-2z" />
    <glyph glyph-name="numbersign.tab" 
d="M28 275h86l23 154h-79v122h97l22 149h115l-22 -149h118l22 149h115l-22 -149h69v-122h-87l-23 -154h80v-122h-98l-22 -153h-115l22 153h-118l-22 -153h-115l22 153h-68v122zM249 433l-24 -162h125l24 162h-125z" />
    <glyph glyph-name="paragraph.tab" 
d="M357 0v230h-24c-168 0 -293 77 -293 234c0 148 112 236 276 236h195v-700h-154z" />
    <glyph glyph-name="section.tab" 
d="M303 -10c-92 0 -163 29 -218 81l72 89c48 -40 93 -60 144 -60c42 0 57 16 57 37c0 23 -14 34 -110 62c-146 42 -203 74 -203 150c0 63 43 99 103 116c-27 23 -45 51 -45 99c0 79 75 146 194 146c92 0 163 -29 218 -81l-72 -89c-48 40 -93 60 -144 60
c-42 0 -57 -16 -57 -37c0 -23 14 -34 110 -62c146 -42 203 -74 203 -150c0 -63 -43 -99 -103 -116c27 -23 45 -51 45 -99c0 -79 -75 -146 -194 -146zM221 413c-28 0 -48 -14 -48 -41c0 -28 23 -40 88 -58c81 -23 97 -27 118 -27c28 0 48 14 48 41c0 28 -23 40 -88 58
c-81 23 -97 27 -118 27z" />
    <glyph glyph-name="degree.tab" 
d="M299 298c-113 0 -209 93 -209 206s98 206 211 206s209 -93 209 -206s-98 -206 -211 -206zM301 381c72 0 120 55 120 123s-50 123 -122 123s-120 -55 -120 -123s50 -123 122 -123z" />
    <glyph glyph-name="percent.tab" 
d="M145 706c71 0 120 -68 120 -181v-10c0 -113 -49 -181 -120 -181s-120 68 -120 181v10c0 113 49 181 120 181zM455 366c71 0 120 -68 120 -181v-10c0 -113 -49 -181 -120 -181s-120 68 -120 181v10c0 113 49 181 120 181zM434 700h77l-189 -363l-156 -337h-77l189 363z
M145 626c-22 0 -38 -26 -38 -97v-18c0 -71 16 -97 38 -97s38 26 38 97v18c0 71 -16 97 -38 97zM455 286c-22 0 -38 -26 -38 -97v-18c0 -71 16 -97 38 -97s38 26 38 97v18c0 71 -16 97 -38 97z" />
    <glyph glyph-name="quotedbl.tab" 
d="M335 381l38 319h168v-5l-129 -314h-77zM89 381l38 319h168v-5l-129 -314h-77z" />
    <glyph glyph-name="quotesingle.tab" horiz-adv-x="300" 
d="M61 381l38 319h170v-5l-129 -314h-79z" />
    <glyph glyph-name="plus.tab" 
d="M542 286l-175 1l1 -177h-136l1 177l-175 -1v132l175 -1l-1 177h136l-1 -177l175 1v-132z" />
    <glyph glyph-name="minus.tab" 
d="M542 282h-484v140h484v-140z" />
    <glyph glyph-name="divide.tab" 
d="M222 495v144h156v-144h-156zM542 288h-484v128h484v-128zM222 65v144h156v-144h-156z" />
    <glyph glyph-name="equal.tab" 
d="M526 412h-452v133h452v-133zM526 159h-452v133h452v-133z" />
    <glyph glyph-name="multiply.tab" 
d="M444 113l-145 149l-145 -149l-93 93l149 145l-149 145l95 95l145 -149l145 149l93 -93l-149 -145l149 -145z" />
    <glyph glyph-name="less.tab" 
d="M519 72l-456 211v138l456 211v-142l-316 -137l316 -137v-144z" />
    <glyph glyph-name="greater.tab" 
d="M537 283l-456 -211v142l316 137l-316 137v144l456 -211v-138z" />
    <glyph glyph-name="plusminus.tab" 
d="M542 379l-175 1l1 -172h-136l1 172l-175 -1v132l175 -1l-1 172h136l-1 -172l175 1v-132zM542 0h-484v126h484v-126z" />
    <glyph glyph-name="space" unicode=" " horiz-adv-x="300" 
 />
    <glyph glyph-name="uni00A0" unicode="&#xa0;" horiz-adv-x="300" 
 />
    <glyph glyph-name="emspace" unicode="&#x2003;" horiz-adv-x="1000" 
 />
    <glyph glyph-name="enspace" unicode="&#x2002;" horiz-adv-x="500" 
 />
    <glyph glyph-name="threeperemspace" unicode="&#x2004;" horiz-adv-x="333" 
 />
    <glyph glyph-name="fourperemspace" unicode="&#x2005;" horiz-adv-x="250" 
 />
    <glyph glyph-name="thinspace" unicode="&#x2009;" horiz-adv-x="133" 
 />
    <glyph glyph-name="hairspace" unicode="&#x200a;" horiz-adv-x="75" 
 />
    <glyph glyph-name="space.tab" horiz-adv-x="300" 
 />
    <glyph glyph-name="figurespace" unicode="&#x2007;" 
 />
    <glyph glyph-name="NUL" horiz-adv-x="0" 
 />
    <glyph glyph-name="asciicircum" unicode="^" horiz-adv-x="500" 
d="M50 493l148 207h104l148 -207h-110l-91 117l-91 -117h-108z" />
    <glyph glyph-name="asciitilde" unicode="~" horiz-adv-x="510" 
d="M337 234c-34 0 -66 12 -91 22c-23 9 -43 17 -59 17c-31 0 -43 -17 -57 -49l-81 25c23 84 54 138 124 138c34 0 66 -12 91 -22c23 -9 43 -17 59 -17c31 0 43 17 57 49l81 -25c-23 -84 -54 -138 -124 -138z" />
    <glyph glyph-name="hfjslug" horiz-adv-x="694" 
d="M644 -200h-208l-8 14h-163l-8 -14h-207v303c18 0 32 14 32 32c0 17 -14 32 -32 32v554h100l30 79h334l29 -79h101v-921zM400 563v-172h15v78h38v14h-38v66h43v14h-58zM184 563v-172h15v79h47v-79h15v172h-15v-79h-47v79h-15zM460 394c5 -2 14 -4 21 -4c20 0 31 11 31 36
v137h-16v-137c0 -16 -5 -22 -16 -22c-6 0 -15 3 -20 5v-15zM371 465l-13 3c-2 -9 -5 -21 -8 -30h-1l-16 31c13 12 23 26 23 42c0 17 -9 31 -27 31c-17 0 -28 -14 -28 -31c0 -15 6 -24 14 -39c-15 -12 -23 -28 -23 -47c0 -22 12 -37 29 -37c13 0 23 9 29 24h1l12 -24l12 6
l-17 32c5 12 9 25 13 39zM523 323v-46h8v12l8 8l15 -20h10l-20 26l18 20h-10l-20 -24h-1v24h-8zM488 292l10 -15h9l-12 17c5 2 10 6 10 14c0 9 -7 15 -17 15h-20v-46h8v15h12zM426 276c14 0 24 11 24 24c0 12 -10 24 -24 24s-24 -12 -24 -24c0 -13 10 -24 24 -24zM370 301
l-13 22h-9l18 -29v-17h8v17l18 29h-9zM193 323v-46h34v7h-26v13h23v7h-23v12h26v7h-34zM132 323v-46h8v32l25 -32h7v46h-8v-32l-25 32h-7zM241 323l14 -47h8l11 34h1l11 -34h8l14 47h-8l-10 -35h-1l-11 35h-7l-11 -35h-1l-10 35h-8zM327 479c-7 13 -12 22 -12 32
c0 11 6 19 14 19s13 -8 13 -19c0 -12 -5 -21 -15 -32zM342 423c-5 -13 -12 -21 -20 -21c-9 0 -16 10 -16 25c0 13 7 26 16 35zM487 299h-11v17h11c6 0 10 -3 10 -8s-4 -9 -10 -9zM426 283c-10 0 -16 8 -16 17c0 8 6 17 16 17s16 -9 16 -17c0 -9 -6 -17 -16 -17z" />
    <glyph glyph-name="i.dot" horiz-adv-x="302" 
d="M71 595v135h160v-135h-160zM75 0v536h152v-536h-152z" />
    <glyph glyph-name="fraction" unicode="&#x2044;" horiz-adv-x="100" 
d="M-229 0l254 367l221 333h83l-254 -367l-221 -333h-83z" />
    <glyph glyph-name="zero.num" horiz-adv-x="400" 
d="M199 300c-92 0 -164 77 -164 202v5c0 126 73 203 165 203c91 0 165 -77 165 -202v-5c0 -126 -75 -203 -166 -203zM199 628c-40 0 -73 -37 -73 -119v-8c0 -81 33 -119 74 -119c40 0 74 37 74 119v8c0 81 -35 119 -75 119z" />
    <glyph glyph-name="one.num" horiz-adv-x="325" 
d="M230 310h-86v303l-75 -28l-25 72l122 48h64v-395z" />
    <glyph glyph-name="one.num_alt" horiz-adv-x="400" 
d="M354 310h-285v76h105v227l-90 -34l-25 72l137 54h64v-319h94v-76z" />
    <glyph glyph-name="two.num" horiz-adv-x="400" 
d="M52 310v75l133 108c47 38 67 59 67 90c0 29 -24 46 -53 46c-31 0 -58 -19 -85 -53l-62 51c39 52 79 83 152 83c84 0 139 -48 139 -119c0 -54 -23 -87 -82 -134l-90 -71h174v-76h-293z" />
    <glyph glyph-name="three.num" horiz-adv-x="400" 
d="M196 300c-69 0 -116 25 -156 60l51 65c30 -26 68 -46 106 -46c31 0 59 19 59 48c0 32 -29 48 -72 48h-47l-14 55l104 92h-160v78h270v-68l-111 -94c66 -5 118 -39 118 -108c0 -77 -56 -130 -148 -130z" />
    <glyph glyph-name="four.num" horiz-adv-x="400" 
d="M314 390v-82h-80v82h-188l-8 83l188 231h88v-245h52v-69h-52zM235 458v152l-122 -152h122z" />
    <glyph glyph-name="five.num" horiz-adv-x="400" 
d="M195 300c-64 0 -111 23 -154 56l51 67c35 -27 68 -42 105 -42c38 0 66 20 66 53c0 32 -27 52 -69 52c-27 0 -55 -6 -72 -14l-55 33l16 195h248v-79h-176l-6 -70c15 5 42 8 64 8c77 0 138 -40 138 -121c0 -84 -61 -138 -156 -138z" />
    <glyph glyph-name="six.num" horiz-adv-x="400" 
d="M202 300c-44 0 -82 16 -106 40c-30 30 -52 72 -52 153v2c0 131 58 215 174 215c53 0 85 -14 117 -38l-41 -70c-23 18 -47 29 -78 29c-44 0 -75 -35 -80 -88c22 13 45 21 82 21c70 0 131 -41 131 -125s-62 -139 -147 -139zM200 374c37 0 65 24 65 60c0 38 -26 61 -65 61
c-41 0 -66 -21 -66 -61c0 -36 29 -60 66 -60z" />
    <glyph glyph-name="seven.num" horiz-adv-x="400" 
d="M175 308h-98l166 311h-180v81h281v-68z" />
    <glyph glyph-name="eight.num" horiz-adv-x="400" 
d="M200 300c-89 0 -151 45 -151 117c0 47 22 77 62 96c-31 18 -52 45 -52 88c0 61 54 109 141 109c86 0 140 -48 140 -109c0 -44 -22 -70 -52 -88c38 -20 62 -48 62 -95c0 -74 -63 -118 -150 -118zM200 641c-36 0 -60 -21 -60 -49c0 -31 25 -51 60 -51c33 0 59 19 59 51
c0 28 -25 49 -59 49zM200 475c-39 0 -69 -19 -69 -53c0 -32 26 -54 69 -54c41 0 67 21 67 54c0 34 -29 53 -67 53z" />
    <glyph glyph-name="nine.num" horiz-adv-x="400" 
d="M198 710c44 0 82 -16 106 -40c30 -30 52 -72 52 -153v-2c0 -131 -58 -215 -174 -215c-53 0 -92 17 -124 41l41 70c23 -18 54 -32 85 -32c43 0 74 33 79 84c-22 -13 -42 -21 -79 -21c-70 0 -133 42 -133 127c0 83 62 141 147 141zM200 511c41 0 66 22 66 63
c0 37 -29 62 -66 62s-65 -25 -65 -62c0 -39 26 -63 65 -63z" />
    <glyph glyph-name="zero.den" horiz-adv-x="400" 
d="M199 -10c-92 0 -164 77 -164 202v5c0 126 73 203 165 203c91 0 165 -77 165 -202v-5c0 -126 -75 -203 -166 -203zM199 318c-40 0 -73 -37 -73 -119v-8c0 -81 33 -119 74 -119c40 0 74 37 74 119v8c0 81 -35 119 -75 119z" />
    <glyph glyph-name="one.den" horiz-adv-x="325" 
d="M230 0h-86v303l-75 -28l-25 72l122 48h64v-395z" />
    <glyph glyph-name="one.den_alt" horiz-adv-x="400" 
d="M354 0h-285v76h105v227l-90 -34l-25 72l137 54h64v-319h94v-76z" />
    <glyph glyph-name="two.den" horiz-adv-x="400" 
d="M52 0v75l133 108c47 38 67 59 67 90c0 29 -24 46 -53 46c-31 0 -58 -19 -85 -53l-62 51c39 52 79 83 152 83c84 0 139 -48 139 -119c0 -54 -23 -87 -82 -134l-90 -71h174v-76h-293z" />
    <glyph glyph-name="three.den" horiz-adv-x="400" 
d="M196 -10c-69 0 -116 25 -156 60l51 65c30 -26 68 -46 106 -46c31 0 59 19 59 48c0 32 -29 48 -72 48h-47l-14 55l104 92h-160v78h270v-68l-111 -94c66 -5 118 -39 118 -108c0 -77 -56 -130 -148 -130z" />
    <glyph glyph-name="four.den" horiz-adv-x="400" 
d="M314 80v-82h-80v82h-188l-8 83l188 231h88v-245h52v-69h-52zM235 148v152l-122 -152h122z" />
    <glyph glyph-name="five.den" horiz-adv-x="400" 
d="M195 -10c-64 0 -111 23 -154 56l51 67c35 -27 68 -42 105 -42c38 0 66 20 66 53c0 32 -27 52 -69 52c-27 0 -55 -6 -72 -14l-55 33l16 195h248v-79h-176l-6 -70c15 5 42 8 64 8c77 0 138 -40 138 -121c0 -84 -61 -138 -156 -138z" />
    <glyph glyph-name="six.den" horiz-adv-x="400" 
d="M202 -10c-44 0 -82 16 -106 40c-30 30 -52 72 -52 153v2c0 131 58 215 174 215c53 0 85 -14 117 -38l-41 -70c-23 18 -47 29 -78 29c-44 0 -75 -35 -80 -88c22 13 45 21 82 21c70 0 131 -41 131 -125s-62 -139 -147 -139zM200 64c37 0 65 24 65 60c0 38 -26 61 -65 61
c-41 0 -66 -21 -66 -61c0 -36 29 -60 66 -60z" />
    <glyph glyph-name="seven.den" horiz-adv-x="400" 
d="M175 -2h-98l166 311h-180v81h281v-68z" />
    <glyph glyph-name="eight.den" horiz-adv-x="400" 
d="M200 -10c-89 0 -151 45 -151 117c0 47 22 77 62 96c-31 18 -52 45 -52 88c0 61 54 109 141 109c86 0 140 -48 140 -109c0 -44 -22 -70 -52 -88c38 -20 62 -48 62 -95c0 -74 -63 -118 -150 -118zM200 331c-36 0 -60 -21 -60 -49c0 -31 25 -51 60 -51c33 0 59 19 59 51
c0 28 -25 49 -59 49zM200 165c-39 0 -69 -19 -69 -53c0 -32 26 -54 69 -54c41 0 67 21 67 54c0 34 -29 53 -67 53z" />
    <glyph glyph-name="nine.den" horiz-adv-x="400" 
d="M198 400c44 0 82 -16 106 -40c30 -30 52 -72 52 -153v-2c0 -131 -58 -215 -174 -215c-53 0 -92 17 -124 41l41 70c23 -18 54 -32 85 -32c43 0 74 33 79 84c-22 -13 -42 -21 -79 -21c-70 0 -133 42 -133 127c0 83 62 141 147 141zM200 201c41 0 66 22 66 63
c0 37 -29 62 -66 62s-65 -25 -65 -62c0 -39 26 -63 65 -63z" />
    <glyph glyph-name="acute" unicode="&#xb4;" horiz-adv-x="500" 
d="M148 595l111 177l131 -57l-130 -120h-112z" />
    <glyph glyph-name="hungarumlaut" unicode="&#x2dd;" horiz-adv-x="500" 
d="M228 595l111 177l128 -57l-132 -120h-107zM43 595l109 177l128 -57l-130 -120h-107z" />
    <glyph glyph-name="caron.alt" horiz-adv-x="500" 
d="M199 592l10 208h109v-3l-59 -205h-60z" />
    <glyph glyph-name="grave" unicode="`" horiz-adv-x="500" 
d="M240 595l-130 120l131 57l111 -177h-112z" />
    <glyph glyph-name="circumflex" unicode="&#x2c6;" horiz-adv-x="500" 
d="M55 595l123 157h144l123 -157h-117l-79 66l-79 -66h-115z" />
    <glyph glyph-name="caron" unicode="&#x2c7;" horiz-adv-x="500" 
d="M445 752l-123 -157h-144l-123 157h117l79 -66l79 66h115z" />
    <glyph glyph-name="breve" unicode="&#x2d8;" horiz-adv-x="500" 
d="M250 593c-106 0 -179 58 -188 159h102c12 -36 36 -60 86 -60s74 24 86 60h102c-9 -101 -82 -159 -188 -159z" />
    <glyph glyph-name="tilde" unicode="&#x2dc;" horiz-adv-x="500" 
d="M332 595c-34 0 -66 12 -91 22c-23 9 -43 17 -59 17c-31 0 -43 -17 -57 -49l-81 25c23 84 54 138 124 138c34 0 66 -12 91 -22c23 -9 43 -17 59 -17c31 0 43 17 57 49l81 -25c-23 -84 -54 -138 -124 -138z" />
    <glyph glyph-name="macron" unicode="&#xaf;" horiz-adv-x="500" 
d="M70 600v105h360v-105h-360z" />
    <glyph glyph-name="dieresis" unicode="&#xa8;" horiz-adv-x="500" 
d="M281 595v135h146v-135h-146zM73 595v135h146v-135h-146z" />
    <glyph glyph-name="dotaccent" unicode="&#x2d9;" horiz-adv-x="500" 
d="M175 595v135h150v-135h-150z" />
    <glyph glyph-name="ring" unicode="&#x2da;" horiz-adv-x="500" 
d="M250 593c-67 0 -121 52 -121 117s54 117 121 117s121 -52 121 -117s-54 -117 -121 -117zM250 644c36 0 66 30 66 66s-30 66 -66 66s-66 -30 -66 -66s30 -66 66 -66z" />
    <glyph glyph-name="acute.cap" horiz-adv-x="500" 
d="M142 755l121 157l131 -57l-136 -100h-116z" />
    <glyph glyph-name="hungarumlaut.cap" horiz-adv-x="500" 
d="M34 755l121 157l126 -57l-136 -100h-111zM224 755l121 157l126 -57l-136 -100h-111z" />
    <glyph glyph-name="grave.cap" horiz-adv-x="500" 
d="M356 755h-116l-136 100l131 57z" />
    <glyph glyph-name="circumflex.cap" horiz-adv-x="500" 
d="M50 755l128 147h144l128 -147h-122l-79 56l-79 -56h-120z" />
    <glyph glyph-name="caron.cap" horiz-adv-x="500" 
d="M450 902l-128 -147h-144l-128 147h122l79 -56l79 56h120z" />
    <glyph glyph-name="breve.cap" horiz-adv-x="500" 
d="M250 753c-106 0 -181 53 -190 149h104c12 -31 36 -49 86 -49s74 18 86 49h104c-9 -96 -84 -149 -190 -149z" />
    <glyph glyph-name="tilde.cap" horiz-adv-x="500" 
d="M335 755c-34 0 -68 12 -97 23c-24 9 -43 16 -59 16c-31 0 -44 -17 -58 -49l-81 25c23 84 55 138 125 138c34 0 68 -12 97 -23c24 -9 43 -16 59 -16c31 0 44 17 58 49l81 -25c-23 -84 -55 -138 -125 -138z" />
    <glyph glyph-name="macron.cap" horiz-adv-x="500" 
d="M60 760v107h380v-107h-380z" />
    <glyph glyph-name="dieresis.cap" horiz-adv-x="500" 
d="M286 755v127h146v-127h-146zM68 755v127h146v-127h-146z" />
    <glyph glyph-name="dotaccent.cap" horiz-adv-x="500" 
d="M175 755v127h150v-127h-150z" />
    <glyph glyph-name="ring.cap" horiz-adv-x="500" 
d="M250 753c-67 0 -124 45 -124 110s57 110 124 110s124 -45 124 -110s-57 -110 -124 -110zM250 807c38 0 63 25 63 56s-25 56 -63 56s-63 -25 -63 -56s25 -56 63 -56z" />
    <glyph glyph-name="commaaccent" unicode="&#x326;" horiz-adv-x="500" 
d="M177 -292l-8 46c53 5 79 30 76 72h-64v115h138v-97c0 -96 -50 -134 -142 -136z" />
    <glyph glyph-name="cedilla" unicode="&#xb8;" horiz-adv-x="500" 
d="M245 -173l-127 53l96 140h109z" />
    <glyph glyph-name="ogonek" unicode="&#x2db;" horiz-adv-x="500" 
d="M356 -97v-67c-16 -2 -32 -3 -45 -3c-87 0 -134 38 -134 87c0 32 17 60 42 90h101c-25 -26 -34 -48 -34 -66c0 -29 26 -43 70 -41z" />
    </font>
</defs>
</svg>
